<svg width="100%" height="100%" viewBox="0 0 1440 80" fill="none" xmlns="http://www.w3.org/2000/svg">
<path d="M0 3H-1.5V4.5H0V3ZM279.166 6.21569L279.665 4.80104L279.665 4.80104L279.166 6.21569ZM298.589 14.7441L297.918 16.0857L297.918 16.0857L298.589 14.7441ZM331.612 32.609L330.88 33.9184L330.88 33.9184L331.612 32.609ZM346.134 40.6879L346.858 39.3742L346.858 39.3742L346.134 40.6879ZM398.813 66.6668L398.251 68.0577L398.251 68.0577L398.813 66.6668ZM445 78.3976H446.5V76.9713L445.075 76.8995L445 78.3976ZM445 78.5H443.5V80H445V78.5ZM1041.19 66.6668L1041.75 68.0577L1041.75 68.0577L1041.19 66.6668ZM1093.87 40.6879L1094.59 42.0016L1094.59 42.0016L1093.87 40.6879ZM1108.36 32.6258L1107.63 31.315L1107.63 31.3165L1108.36 32.6258ZM1108.39 32.609L1109.12 33.9198L1109.12 33.9184L1108.39 32.609ZM1141.41 14.7441L1142.08 16.0857L1142.08 16.0857L1141.41 14.7441ZM1160.83 6.21569L1160.34 4.80104L1160.34 4.80104L1160.83 6.21569ZM1440 3V4.5H1441.5V3H1440ZM1440 2H1441.5V0.5H1440V2ZM1160.5 5.27259L1161 6.68724L1161 6.68724L1160.5 5.27259ZM1140.96 13.8497L1140.29 12.508L1140.29 12.508L1140.96 13.8497ZM1107.88 31.7487L1107.15 30.4394L1107.15 30.4394L1107.88 31.7487ZM1093.38 39.8121L1092.66 38.4984L1092.66 38.4984L1093.38 39.8121ZM1040.81 65.7395L1040.25 64.3486L1040.25 64.3486L1040.81 65.7395ZM399.187 65.7395L399.749 64.3486L399.749 64.3486L399.187 65.7395ZM346.616 39.8121L345.892 41.1258L345.892 41.1258L346.616 39.8121ZM332.125 31.7501L332.857 30.4407L332.849 30.4363L332.125 31.7501ZM332.122 31.7487L331.391 33.0584L331.399 33.0625L332.122 31.7487ZM332.121 31.748L331.389 33.0573L331.39 33.0576L332.121 31.748ZM299.036 13.8497L299.707 12.508L299.707 12.508L299.036 13.8497ZM279.498 5.27259L279 6.68724L279 6.68724L279.498 5.27259ZM0 2V0.5H-1.5V2H0ZM0.449195 1.5H0V4.5H0.449195V1.5ZM0.900289 1.5H0.449195V4.5H0.900289V1.5ZM1.35327 1.5H0.900289V4.5H1.35327V1.5ZM1.80814 1.5H1.35327V4.5H1.80814V1.5ZM2.26487 1.5H1.80814V4.5H2.26487V1.5ZM2.72347 1.5H2.26487V4.5H2.72347V1.5ZM3.18391 1.5H2.72347V4.5H3.18391V1.5ZM3.6462 1.5H3.18391V4.5H3.6462V1.5ZM4.11032 1.5H3.6462V4.5H4.11032V1.5ZM4.57626 1.5H4.11032V4.5H4.57626V1.5ZM5.04401 1.5H4.57626V4.5H5.04401V1.5ZM5.51357 1.5H5.04401V4.5H5.51357V1.5ZM5.98492 1.5H5.51357V4.5H5.98492V1.5ZM6.45805 1.5H5.98492V4.5H6.45805V1.5ZM6.93296 1.5H6.45805V4.5H6.93296V1.5ZM7.40963 1.5H6.93296V4.5H7.40963V1.5ZM7.88805 1.5H7.40963V4.5H7.88805V1.5ZM8.36822 1.5H7.88805V4.5H8.36822V1.5ZM8.85013 1.5H8.36822V4.5H8.85013V1.5ZM9.33376 1.5H8.85013V4.5H9.33376V1.5ZM9.81911 1.5H9.33376V4.5H9.81911V1.5ZM10.3062 1.5H9.81911V4.5H10.3062V1.5ZM10.7949 1.5H10.3062V4.5H10.7949V1.5ZM11.2854 1.5H10.7949V4.5H11.2854V1.5ZM11.7775 1.5H11.2854V4.5H11.7775V1.5ZM12.2712 1.5H11.7775V4.5H12.2712V1.5ZM12.7667 1.5H12.2712V4.5H12.7667V1.5ZM13.2638 1.5H12.7667V4.5H13.2638V1.5ZM13.7625 1.5H13.2638V4.5H13.7625V1.5ZM14.2629 1.5H13.7625V4.5H14.2629V1.5ZM14.7648 1.5H14.2629V4.5H14.7648V1.5ZM15.2684 1.5H14.7648V4.5H15.2684V1.5ZM15.7736 1.5H15.2684V4.5H15.7736V1.5ZM16.2804 1.5H15.7736V4.5H16.2804V1.5ZM16.7888 1.5H16.2804V4.5H16.7888V1.5ZM17.2987 1.5H16.7888V4.5H17.2987V1.5ZM17.8102 1.5H17.2987V4.5H17.8102V1.5ZM18.3232 1.5H17.8102V4.5H18.3232V1.5ZM18.8378 1.5H18.3232V4.5H18.8378V1.5ZM19.3539 1.5H18.8378V4.5H19.3539V1.5ZM19.8716 1.5H19.3539V4.5H19.8716V1.5ZM20.3907 1.5H19.8716V4.5H20.3907V1.5ZM20.9114 1.5H20.3907V4.5H20.9114V1.5ZM21.4335 1.5H20.9114V4.5H21.4335V1.5ZM21.9572 1.5H21.4335V4.5H21.9572V1.5ZM22.4823 1.5H21.9572V4.5H22.4823V1.5ZM23.0089 1.5H22.4823V4.5H23.0089V1.5ZM23.5369 1.5H23.0089V4.5H23.5369V1.5ZM24.0664 1.5H23.5369V4.5H24.0664V1.5ZM24.5973 1.5H24.0664V4.5H24.5973V1.5ZM25.1297 1.5H24.5973V4.5H25.1297V1.5ZM25.6634 1.5H25.1297V4.5H25.6634V1.5ZM26.1986 1.5H25.6634V4.5H26.1986V1.5ZM26.7352 1.5H26.1986V4.5H26.7352V1.5ZM27.2731 1.5H26.7352V4.5H27.2731V1.5ZM27.8124 1.5H27.2731V4.5H27.8124V1.5ZM28.3531 1.5H27.8124V4.5H28.3531V1.5ZM28.8952 1.5H28.3531V4.5H28.8952V1.5ZM29.4386 1.5H28.8952V4.5H29.4386V1.5ZM29.9834 1.5H29.4386V4.5H29.9834V1.5ZM30.5295 1.5H29.9834V4.5H30.5295V1.5ZM31.0769 1.5H30.5295V4.5H31.0769V1.5ZM31.6256 1.5H31.0769V4.5H31.6256V1.5ZM32.1756 1.5H31.6256V4.5H32.1756V1.5ZM32.7269 1.5H32.1756V4.5H32.7269V1.5ZM33.2795 1.5H32.7269V4.5H33.2795V1.5ZM33.8333 1.5H33.2795V4.5H33.8333V1.5ZM34.3885 1.5H33.8333V4.5H34.3885V1.5ZM34.9448 1.5H34.3885V4.5H34.9448V1.5ZM35.5025 1.5H34.9448V4.5H35.5025V1.5ZM36.0613 1.5H35.5025V4.5H36.0613V1.5ZM36.6214 1.5H36.0613V4.5H36.6214V1.5ZM37.1827 1.5H36.6214V4.5H37.1827V1.5ZM37.7452 1.5H37.1827V4.5H37.7452V1.5ZM38.3089 1.5H37.7452V4.5H38.3089V1.5ZM38.8738 1.5H38.3089V4.5H38.8738V1.5ZM39.4398 1.5H38.8738V4.5H39.4398V1.5ZM40.007 1.5H39.4398V4.5H40.007V1.5ZM40.5754 1.5H40.007V4.5H40.5754V1.5ZM41.1449 1.5H40.5754V4.5H41.1449V1.5ZM41.7156 1.5H41.1449V4.5H41.7156V1.5ZM42.2874 1.5H41.7156V4.5H42.2874V1.5ZM42.8603 1.5H42.2874V4.5H42.8603V1.5ZM43.4343 1.5H42.8603V4.5H43.4343V1.5ZM44.0094 1.5H43.4343V4.5H44.0094V1.5ZM44.5856 1.5H44.0094V4.5H44.5856V1.5ZM45.1629 1.5H44.5856V4.5H45.1629V1.5ZM45.7413 1.5H45.1629V4.5H45.7413V1.5ZM46.3207 1.5H45.7413V4.5H46.3207V1.5ZM46.9012 1.5H46.3207V4.5H46.9012V1.5ZM47.4827 1.5H46.9012V4.5H47.4827V1.5ZM48.0652 1.5H47.4827V4.5H48.0652V1.5ZM48.6488 1.5H48.0652V4.5H48.6488V1.5ZM49.2333 1.5H48.6488V4.5H49.2333V1.5ZM49.8189 1.5H49.2333V4.5H49.8189V1.5ZM50.4055 1.5H49.8189V4.5H50.4055V1.5ZM50.993 1.5H50.4055V4.5H50.993V1.5ZM51.5816 1.5H50.993V4.5H51.5816V1.5ZM52.1711 1.5H51.5816V4.5H52.1711V1.5ZM52.7615 1.5H52.1711V4.5H52.7615V1.5ZM53.3529 1.5H52.7615V4.5H53.3529V1.5ZM53.9452 1.5H53.3529V4.5H53.9452V1.5ZM54.5385 1.5H53.9452V4.5H54.5385V1.5ZM55.1326 1.5H54.5385V4.5H55.1326V1.5ZM55.7277 1.5H55.1326V4.5H55.7277V1.5ZM56.3237 1.5H55.7277V4.5H56.3237V1.5ZM56.9205 1.5H56.3237V4.5H56.9205V1.5ZM57.5182 1.5H56.9205V4.5H57.5182V1.5ZM58.1168 1.5H57.5182V4.5H58.1168V1.5ZM58.7163 1.5H58.1168V4.5H58.7163V1.5ZM59.3166 1.5H58.7163V4.5H59.3166V1.5ZM59.9177 1.5H59.3166V4.5H59.9177V1.5ZM60.5197 1.5H59.9177V4.5H60.5197V1.5ZM61.1225 1.5H60.5197V4.5H61.1225V1.5ZM61.7261 1.5H61.1225V4.5H61.7261V1.5ZM62.3305 1.5H61.7261V4.5H62.3305V1.5ZM62.9357 1.5H62.3305V4.5H62.9357V1.5ZM63.5417 1.5H62.9357V4.5H63.5417V1.5ZM64.1484 1.5H63.5417V4.5H64.1484V1.5ZM64.7559 1.5H64.1484V4.5H64.7559V1.5ZM65.3642 1.5H64.7559V4.5H65.3642V1.5ZM65.9732 1.5H65.3642V4.5H65.9732V1.5ZM66.5829 1.5H65.9732V4.5H66.5829V1.5ZM67.1933 1.5H66.5829V4.5H67.1933V1.5ZM67.8045 1.5H67.1933V4.5H67.8045V1.5ZM68.4164 1.5H67.8045V4.5H68.4164V1.5ZM69.0289 1.5H68.4164V4.5H69.0289V1.5ZM69.6422 1.5H69.0289V4.5H69.6422V1.5ZM70.2561 1.5H69.6422V4.5H70.2561V1.5ZM70.8707 1.5H70.2561V4.5H70.8707V1.5ZM71.4859 1.5H70.8707V4.5H71.4859V1.5ZM72.1018 1.5H71.4859V4.5H72.1018V1.5ZM72.7184 1.5H72.1018V4.5H72.7184V1.5ZM73.3355 1.5H72.7184V4.5H73.3355V1.5ZM73.9533 1.5H73.3355V4.5H73.9533V1.5ZM74.5716 1.5H73.9533V4.5H74.5716V1.5ZM75.1906 1.5H74.5716V4.5H75.1906V1.5ZM75.8102 1.5H75.1906V4.5H75.8102V1.5ZM76.4303 1.5H75.8102V4.5H76.4303V1.5ZM77.051 1.5H76.4303V4.5H77.051V1.5ZM77.6723 1.5H77.051V4.5H77.6723V1.5ZM78.2941 1.5H77.6723V4.5H78.2941V1.5ZM78.9165 1.5H78.2941V4.5H78.9165V1.5ZM79.5393 1.5H78.9165V4.5H79.5393V1.5ZM80.1627 1.5H79.5393V4.5H80.1627V1.5ZM80.7867 1.5H80.1627V4.5H80.7867V1.5ZM81.4111 1.5H80.7867V4.5H81.4111V1.5ZM82.036 1.5H81.4111V4.5H82.036V1.5ZM82.6614 1.5H82.036V4.5H82.6614V1.5ZM83.2872 1.5H82.6614V4.5H83.2872V1.5ZM83.9136 1.5H83.2872V4.5H83.9136V1.5ZM84.5403 1.5H83.9136V4.5H84.5403V1.5ZM85.1676 1.5H84.5403V4.5H85.1676V1.5ZM85.7952 1.5H85.1676V4.5H85.7952V1.5ZM86.4233 1.5H85.7952V4.5H86.4233V1.5ZM87.0518 1.5H86.4233V4.5H87.0518V1.5ZM87.6807 1.5H87.0518V4.5H87.6807V1.5ZM88.31 1.5H87.6807V4.5H88.31V1.5ZM88.9397 1.5H88.31V4.5H88.9397V1.5ZM89.5697 1.5H88.9397V4.5H89.5697V1.5ZM90.2001 1.5H89.5697V4.5H90.2001V1.5ZM90.8309 1.5H90.2001V4.5H90.8309V1.5ZM91.462 1.5H90.8309V4.5H91.462V1.5ZM92.0935 1.5H91.462V4.5H92.0935V1.5ZM92.7253 1.5H92.0935V4.5H92.7253V1.5ZM93.3574 1.5H92.7253V4.5H93.3574V1.5ZM93.9898 1.5H93.3574V4.5H93.9898V1.5ZM94.6225 1.5H93.9898V4.5H94.6225V1.5ZM95.2555 1.5H94.6225V4.5H95.2555V1.5ZM95.8888 1.5H95.2555V4.5H95.8888V1.5ZM96.5223 1.5H95.8888V4.5H96.5223V1.5ZM97.1561 1.5H96.5223V4.5H97.1561V1.5ZM97.7902 1.5H97.1561V4.5H97.7902V1.5ZM98.4245 1.5H97.7902V4.5H98.4245V1.5ZM99.059 1.5H98.4245V4.5H99.059V1.5ZM99.6938 1.5H99.059V4.5H99.6938V1.5ZM100.329 1.5H99.6938V4.5H100.329V1.5ZM100.964 1.5H100.329V4.5H100.964V1.5ZM101.599 1.5H100.964V4.5H101.599V1.5ZM102.235 1.5H101.599V4.5H102.235V1.5ZM102.871 1.5H102.235V4.5H102.871V1.5ZM103.506 1.5H102.871V4.5H103.506V1.5ZM104.142 1.5H103.506V4.5H104.142V1.5ZM104.779 1.5H104.142V4.5H104.779V1.5ZM105.415 1.5H104.779V4.5H105.415V1.5ZM106.051 1.5H105.415V4.5H106.051V1.5ZM106.688 1.5H106.051V4.5H106.688V1.5ZM107.325 1.5H106.688V4.5H107.325V1.5ZM107.961 1.5H107.325V4.5H107.961V1.5ZM108.598 1.5H107.961V4.5H108.598V1.5ZM109.235 1.5H108.598V4.5H109.235V1.5ZM109.872 1.5H109.235V4.5H109.872V1.5ZM110.509 1.5H109.872V4.5H110.509V1.5ZM111.146 1.5H110.509V4.5H111.146V1.5ZM111.783 1.5H111.146V4.5H111.783V1.5ZM112.42 1.5H111.783V4.5H112.42V1.5ZM113.058 1.5H112.42V4.5H113.058V1.5ZM113.695 1.5H113.058V4.5H113.695V1.5ZM114.332 1.5H113.695V4.5H114.332V1.5ZM114.969 1.5H114.332V4.5H114.969V1.5ZM115.606 1.5H114.969V4.5H115.606V1.5ZM116.243 1.5H115.606V4.5H116.243V1.5ZM116.881 1.5H116.243V4.5H116.881V1.5ZM117.518 1.5H116.881V4.5H117.518V1.5ZM118.155 1.5H117.518V4.5H118.155V1.5ZM118.792 1.5H118.155V4.5H118.792V1.5ZM119.428 1.5H118.792V4.5H119.428V1.5ZM120.065 1.5H119.428V4.5H120.065V1.5ZM120.702 1.5H120.065V4.5H120.702V1.5ZM121.338 1.5H120.702V4.5H121.338V1.5ZM121.975 1.5H121.338V4.5H121.975V1.5ZM122.611 1.5H121.975V4.5H122.611V1.5ZM123.247 1.5H122.611V4.5H123.247V1.5ZM123.883 1.5H123.247V4.5H123.883V1.5ZM124.519 1.5H123.883V4.5H124.519V1.5ZM125.155 1.5H124.519V4.5H125.155V1.5ZM125.79 1.5H125.155V4.5H125.79V1.5ZM126.426 1.5H125.79V4.5H126.426V1.5ZM127.061 1.5H126.426V4.5H127.061V1.5ZM127.696 1.5H127.061V4.5H127.696V1.5ZM128.33 1.5H127.696V4.5H128.33V1.5ZM128.965 1.5H128.33V4.5H128.965V1.5ZM129.599 1.5H128.965V4.5H129.599V1.5ZM130.233 1.5H129.599V4.5H130.233V1.5ZM130.867 1.5H130.233V4.5H130.867V1.5ZM131.501 1.5H130.867V4.5H131.501V1.5ZM132.134 1.5H131.501V4.5H132.134V1.5ZM132.767 1.5H132.134V4.5H132.767V1.5ZM133.4 1.5H132.767V4.5H133.4V1.5ZM134.032 1.5H133.4V4.5H134.032V1.5ZM134.664 1.5H134.032V4.5H134.664V1.5ZM135.296 1.5H134.664V4.5H135.296V1.5ZM135.927 1.5H135.296V4.5H135.927V1.5ZM136.558 1.5H135.927V4.5H136.558V1.5ZM137.189 1.5H136.558V4.5H137.189V1.5ZM137.819 1.5H137.189V4.5H137.819V1.5ZM138.45 1.5H137.819V4.5H138.45V1.5ZM139.079 1.5H138.45V4.5H139.079V1.5ZM139.708 1.5H139.079V4.5H139.708V1.5ZM140.337 1.5H139.708V4.5H140.337V1.5ZM140.966 1.5H140.337V4.5H140.966V1.5ZM141.594 1.5H140.966V4.5H141.594V1.5ZM142.221 1.5H141.594V4.5H142.221V1.5ZM142.849 1.5H142.221V4.5H142.849V1.5ZM143.475 1.5H142.849V4.5H143.475V1.5ZM144.102 1.5H143.475V4.5H144.102V1.5ZM144.727 1.5H144.102V4.5H144.727V1.5ZM145.353 1.5H144.727V4.5H145.353V1.5ZM145.978 1.5H145.353V4.5H145.978V1.5ZM146.602 1.5H145.978V4.5H146.602V1.5ZM147.226 1.5H146.602V4.5H147.226V1.5ZM147.849 1.5H147.226V4.5H147.849V1.5ZM148.472 1.5H147.849V4.5H148.472V1.5ZM149.094 1.5H148.472V4.5H149.094V1.5ZM149.716 1.5H149.094V4.5H149.716V1.5ZM150.337 1.5H149.716V4.5H150.337V1.5ZM150.958 1.5H150.337V4.5H150.958V1.5ZM151.578 1.5H150.958V4.5H151.578V1.5ZM152.198 1.5H151.578V4.5H152.198V1.5ZM152.817 1.5H152.198V4.5H152.817V1.5ZM153.435 1.5H152.817V4.5H153.435V1.5ZM154.053 1.5H153.435V4.5H154.053V1.5ZM154.67 1.5H154.053V4.5H154.67V1.5ZM155.286 1.5H154.67V4.5H155.286V1.5ZM155.902 1.5H155.286V4.5H155.902V1.5ZM156.517 1.5H155.902V4.5H156.517V1.5ZM157.132 1.5H156.517V4.5H157.132V1.5ZM157.746 1.5H157.132V4.5H157.746V1.5ZM158.359 1.5H157.746V4.5H158.359V1.5ZM158.972 1.5H158.359V4.5H158.972V1.5ZM159.583 1.5H158.972V4.5H159.583V1.5ZM160.194 1.5H159.583V4.5H160.194V1.5ZM160.805 1.5H160.194V4.5H160.805V1.5ZM161.415 1.5H160.805V4.5H161.415V1.5ZM162.023 1.5H161.415V4.5H162.023V1.5ZM162.632 1.5H162.023V4.5H162.632V1.5ZM163.239 1.5H162.632V4.5H163.239V1.5ZM163.846 1.5H163.239V4.5H163.846V1.5ZM164.452 1.5H163.846V4.5H164.452V1.5ZM165.057 1.5H164.452V4.5H165.057V1.5ZM165.661 1.5H165.057V4.5H165.661V1.5ZM166.265 1.5H165.661V4.5H166.265V1.5ZM166.867 1.5H166.265V4.5H166.867V1.5ZM167.469 1.5H166.867V4.5H167.469V1.5ZM168.07 1.5H167.469V4.5H168.07V1.5ZM168.671 1.5H168.07V4.5H168.671V1.5ZM169.27 1.5H168.671V4.5H169.27V1.5ZM169.869 1.5H169.27V4.5H169.869V1.5ZM170.466 1.5H169.869V4.5H170.466V1.5ZM171.063 1.5H170.466V4.5H171.063V1.5ZM171.659 1.5H171.063V4.5H171.659V1.5ZM172.254 1.5H171.659V4.5H172.254V1.5ZM172.848 1.5H172.254V4.5H172.848V1.5ZM173.441 1.5H172.848V4.5H173.441V1.5ZM174.034 1.5H173.441V4.5H174.034V1.5ZM174.625 1.5H174.034V4.5H174.625V1.5ZM175.215 1.5H174.625V4.5H175.215V1.5ZM175.805 1.5H175.215V4.5H175.805V1.5ZM176.393 1.5H175.805V4.5H176.393V1.5ZM176.981 1.5H176.393V4.5H176.981V1.5ZM177.567 1.5H176.981V4.5H177.567V1.5ZM178.153 1.5H177.567V4.5H178.153V1.5ZM178.737 1.5H178.153V4.5H178.737V1.5ZM179.321 1.5H178.737V4.5H179.321V1.5ZM179.903 1.5H179.321V4.5H179.903V1.5ZM180.484 1.5H179.903V4.5H180.484V1.5ZM181.065 1.5H180.484V4.5H181.065V1.5ZM181.644 1.5H181.065V4.5H181.644V1.5ZM182.222 1.5H181.644V4.5H182.222V1.5ZM182.8 1.5H182.222V4.5H182.8V1.5ZM183.376 1.5H182.8V4.5H183.376V1.5ZM183.951 1.5H183.376V4.5H183.951V1.5ZM184.525 1.5H183.951V4.5H184.525V1.5ZM185.098 1.5H184.525V4.5H185.098V1.5ZM185.669 1.5H185.098V4.5H185.669V1.5ZM186.24 1.5H185.669V4.5H186.24V1.5ZM186.809 1.5H186.24V4.5H186.809V1.5ZM187.378 1.5H186.809V4.5H187.378V1.5ZM187.945 1.5H187.378V4.5H187.945V1.5ZM188.511 1.5H187.945V4.5H188.511V1.5ZM189.076 1.5H188.511V4.5H189.076V1.5ZM189.639 1.5H189.076V4.5H189.639V1.5ZM190.202 1.5H189.639V4.5H190.202V1.5ZM190.763 1.5H190.202V4.5H190.763V1.5ZM191.323 1.5H190.763V4.5H191.323V1.5ZM191.882 1.5H191.323V4.5H191.882V1.5ZM192.439 1.5H191.882V4.5H192.439V1.5ZM192.995 1.5H192.439V4.5H192.995V1.5ZM193.55 1.5H192.995V4.5H193.55V1.5ZM194.104 1.5H193.55V4.5H194.104V1.5ZM194.657 1.5H194.104V4.5H194.657V1.5ZM195.208 1.5H194.657V4.5H195.208V1.5ZM195.758 1.5H195.208V4.5H195.758V1.5ZM196.306 1.5H195.758V4.5H196.306V1.5ZM196.854 1.5H196.306V4.5H196.854V1.5ZM197.4 1.5H196.854V4.5H197.4V1.5ZM197.944 1.5H197.4V4.5H197.944V1.5ZM198.488 1.5H197.944V4.5H198.488V1.5ZM199.03 1.5H198.488V4.5H199.03V1.5ZM199.57 1.5H199.03V4.5H199.57V1.5ZM200.109 1.5H199.57V4.5H200.109V1.5ZM200.647 1.5H200.109V4.5H200.647V1.5ZM201.184 1.5H200.647V4.5H201.184V1.5ZM201.719 1.5H201.184V4.5H201.719V1.5ZM202.253 1.5H201.719V4.5H202.253V1.5ZM202.785 1.5H202.253V4.5H202.785V1.5ZM203.316 1.5H202.785V4.5H203.316V1.5ZM203.845 1.5H203.316V4.5H203.845V1.5ZM204.373 1.5H203.845V4.5H204.373V1.5ZM204.899 1.5H204.373V4.5H204.899V1.5ZM205.424 1.5H204.899V4.5H205.424V1.5ZM205.948 1.5H205.424V4.5H205.948V1.5ZM206.47 1.5H205.948V4.5H206.47V1.5ZM206.99 1.5H206.47V4.5H206.99V1.5ZM207.51 1.5H206.99V4.5H207.51V1.5ZM208.027 1.5H207.51V4.5H208.027V1.5ZM208.543 1.5H208.027V4.5H208.543V1.5ZM209.058 1.5H208.543V4.5H209.058V1.5ZM209.57 1.5H209.058V4.5H209.57V1.5ZM210.082 1.5H209.57V4.5H210.082V1.5ZM210.592 1.5H210.082V4.5H210.592V1.5ZM211.1 1.5H210.592V4.5H211.1V1.5ZM211.607 1.5H211.1V4.5H211.607V1.5ZM212.112 1.5H211.607V4.5H212.112V1.5ZM212.615 1.5H212.112V4.5H212.615V1.5ZM213.117 1.5H212.615V4.5H213.117V1.5ZM213.617 1.5H213.117V4.5H213.617V1.5ZM214.116 1.5H213.617V4.5H214.116V1.5ZM214.613 1.5H214.116V4.5H214.613V1.5ZM215.108 1.5H214.613V4.5H215.108V1.5ZM215.602 1.5H215.108V4.5H215.602V1.5ZM216.094 1.5H215.602V4.5H216.094V1.5ZM216.584 1.5H216.094V4.5H216.584V1.5ZM217.073 1.5H216.584V4.5H217.073V1.5ZM217.56 1.5H217.073V4.5H217.56V1.5ZM218.045 1.5H217.56V4.5H218.045V1.5ZM218.528 1.5H218.045V4.5H218.528V1.5ZM219.01 1.5H218.528V4.5H219.01V1.5ZM219.49 1.5H219.01V4.5H219.49V1.5ZM219.969 1.5H219.49V4.5H219.969V1.5ZM220.445 1.5H219.969V4.5H220.445V1.5ZM220.92 1.5H220.445V4.5H220.92V1.5ZM221.393 1.5H220.92V4.5H221.393V1.5ZM221.864 1.5H221.393V4.5H221.864V1.5ZM222.333 1.5H221.864V4.5H222.333V1.5ZM222.801 1.5H222.333V4.5H222.801V1.5ZM223.267 1.5H222.801V4.5H223.267V1.5ZM223.731 1.5H223.267V4.5H223.731V1.5ZM224.193 1.5H223.731V4.5H224.193V1.5ZM224.653 1.5H224.193V4.5H224.653V1.5ZM225.112 1.5H224.653V4.5H225.112V1.5ZM225.568 1.5H225.112V4.5H225.568V1.5ZM226.023 1.5H225.568V4.5H226.023V1.5ZM226.476 1.5H226.023V4.5H226.476V1.5ZM226.927 1.5H226.476V4.5H226.927V1.5ZM227.376 1.5H226.927V4.5H227.376V1.5ZM227.823 1.5H227.376V4.5H227.823V1.5ZM228.268 1.5H227.823V4.5H228.268V1.5ZM228.712 1.5H228.268V4.5H228.712V1.5ZM229.153 1.5H228.712V4.5H229.153V1.5ZM229.592 1.5H229.153V4.5H229.592V1.5ZM230.03 1.5H229.592V4.5H230.03V1.5ZM230.465 1.5H230.03V4.5H230.465V1.5ZM230.899 1.5H230.465V4.5H230.899V1.5ZM231.33 1.5H230.899V4.5H231.33V1.5ZM231.76 1.5H231.33V4.5H231.76V1.5ZM232.188 1.5H231.76V4.5H232.188V1.5ZM232.613 1.5H232.188V4.5H232.613V1.5ZM233.036 1.5H232.613V4.5H233.036V1.5ZM233.458 1.5H233.036V4.5H233.458V1.5ZM233.877 1.5H233.458V4.5H233.877V1.5ZM234.295 1.5H233.877V4.5H234.295V1.5ZM234.71 1.5H234.295V4.5H234.71V1.5ZM235.123 1.5H234.71V4.5H235.123V1.5ZM235.534 1.5H235.123V4.5H235.534V1.5ZM235.943 1.5H235.534V4.5H235.943V1.5ZM236.35 1.5H235.943V4.5H236.35V1.5ZM236.755 1.5H236.35V4.5H236.755V1.5ZM237.158 1.5H236.755V4.5H237.158V1.5ZM237.558 1.5H237.158V4.5H237.558V1.5ZM237.957 1.5H237.558V4.5H237.957V1.5ZM238.353 1.5H237.957V4.5H238.353V1.5ZM238.747 1.5H238.353V4.5H238.747V1.5ZM239.139 1.5H238.747V4.5H239.139V1.5ZM239.529 1.5H239.139V4.5H239.529V1.5ZM239.916 1.5H239.529V4.5H239.916V1.5ZM240.302 1.5H239.916V4.5H240.302V1.5ZM240.685 1.5H240.302V4.5H240.685V1.5ZM241.066 1.5H240.685V4.5H241.066V1.5ZM241.445 1.5H241.066V4.5H241.445V1.5ZM241.821 1.5H241.445V4.5H241.821V1.5ZM242.195 1.5H241.821V4.5H242.195V1.5ZM242.567 1.5H242.195V4.5H242.567V1.5ZM242.937 1.5H242.567V4.5H242.937V1.5ZM243.305 1.5H242.937V4.5H243.305V1.5ZM243.67 1.5H243.305V4.5H243.67V1.5ZM244.033 1.5H243.67V4.5H244.033V1.5ZM244.393 1.5H244.033V4.5H244.393V1.5ZM244.751 1.5H244.393V4.5H244.751V1.5ZM245.107 1.5H244.751V4.5H245.107V1.5ZM245.461 1.5H245.107V4.5H245.461V1.5ZM245.812 1.5H245.461V4.5H245.812V1.5ZM246.161 1.5H245.812V4.5H246.161V1.5ZM246.507 1.5H246.161V4.5H246.507V1.5ZM246.852 1.5H246.507V4.5H246.852V1.5ZM247.193 1.5H246.852V4.5H247.193V1.5ZM247.533 1.5H247.193V4.5H247.533V1.5ZM247.87 1.5H247.533V4.5H247.87V1.5ZM248.204 1.5H247.87V4.5H248.204V1.5ZM248.536 1.5H248.204V4.5H248.536V1.5ZM248.866 1.5H248.536V4.5H248.866V1.5ZM249.193 1.5H248.866V4.5H249.193V1.5ZM249.518 1.5H249.193V4.5H249.518V1.5ZM249.841 1.5H249.518V4.5H249.841V1.5ZM250.16 1.5H249.841V4.5H250.16V1.5ZM250.478 1.5H250.16V4.5H250.478V1.5ZM250.793 1.5H250.478V4.5H250.793V1.5ZM251.105 1.5H250.793V4.5H251.105V1.5ZM251.415 1.5H251.105V4.5H251.415V1.5ZM251.723 1.5H251.415V4.5H251.723V1.5ZM252.027 1.5H251.723V4.5H252.027V1.5ZM252.33 1.5H252.027V4.5H252.33V1.5ZM252.63 1.5H252.33V4.5H252.63V1.5ZM252.927 1.5H252.63V4.5H252.927V1.5ZM253.222 1.5H252.927V4.5H253.222V1.5ZM253.514 1.5H253.222V4.5H253.514V1.5ZM253.803 1.5H253.514V4.5H253.803V1.5ZM254.09 1.5H253.803V4.5H254.09V1.5ZM254.374 1.5H254.09V4.5H254.374V1.5ZM254.656 1.5H254.374V4.5H254.656V1.5ZM254.935 1.5H254.656V4.5H254.935V1.5ZM255.212 1.5H254.935V4.5H255.212V1.5ZM255.485 1.5H255.212V4.5H255.485V1.5ZM255.757 1.5H255.485V4.5H255.757V1.5ZM256.025 1.5H255.757V4.5H256.025V1.5ZM256.291 1.5H256.025V4.5H256.291V1.5ZM256.554 1.5H256.291V4.5H256.554V1.5ZM256.814 1.5H256.554V4.5H256.814V1.5ZM257.072 1.5H256.814V4.5H257.072V1.5ZM257.327 1.5H257.072V4.5H257.327V1.5ZM257.58 1.5H257.327V4.5H257.58V1.5ZM257.829 1.5H257.58V4.5H257.829V1.5ZM258.076 1.5H257.829V4.5H258.076V1.5ZM258.32 1.5H258.076V4.5H258.32V1.5ZM258.561 1.5H258.32V4.5H258.561V1.5ZM258.8 1.5H258.561V4.5H258.8V1.5ZM259.036 1.5H258.8V4.5H259.036V1.5ZM259.269 1.5H259.036V4.5H259.269V1.5ZM259.499 1.5H259.269V4.5H259.499V1.5ZM259.727 1.5H259.499V4.5H259.727V1.5ZM259.951 1.5H259.727V4.5H259.951V1.5ZM260.173 1.5H259.951V4.5H260.173V1.5ZM260.392 1.5H260.173V4.5H260.392V1.5ZM260.608 1.5H260.392V4.5H260.608V1.5ZM260.821 1.5H260.608V4.5H260.821V1.5ZM261.031 1.5H260.821V4.5H261.031V1.5ZM261.239 1.5H261.031V4.5H261.239V1.5ZM261.444 1.5H261.239V4.5H261.444V1.5ZM261.645 1.5H261.444V4.5H261.645V1.5ZM261.844 1.5H261.645V4.5H261.844V1.5ZM262.04 1.5H261.844V4.5H262.04V1.5ZM262.233 1.5H262.04V4.5H262.233V1.5ZM262.423 1.5H262.233V4.5H262.423V1.5ZM262.61 1.5H262.423V4.5H262.61V1.5ZM262.794 1.5H262.61V4.5H262.794V1.5ZM262.976 1.5H262.794V4.5H262.976V1.5ZM263.154 1.5H262.976V4.5H263.154V1.5ZM263.329 1.5H263.154V4.5H263.329V1.5ZM263.501 1.5H263.329V4.5H263.501V1.5ZM263.671 1.5H263.501V4.5H263.671V1.5ZM263.837 1.5H263.671V4.5H263.837V1.5ZM264 1.5H263.837V4.5H264V1.5ZM279.665 4.80104C273.764 2.72076 268.477 1.5 264 1.5V4.5C267.984 4.5 272.901 5.59756 278.667 7.63034L279.665 4.80104ZM299.26 13.4024C292.164 9.85469 285.576 6.88512 279.665 4.80104L278.667 7.63034C284.411 9.65555 290.875 12.5641 297.918 16.0857L299.26 13.4024ZM332.344 31.2997C320.568 24.717 309.379 18.4619 299.26 13.4024L297.918 16.0857C307.963 21.1081 319.087 27.3264 330.88 33.9184L332.344 31.2997ZM346.858 39.3742C341.939 36.6637 337.093 33.9545 332.344 31.2997L330.88 33.9184C335.628 36.5725 340.482 39.2861 345.41 42.0016L346.858 39.3742ZM399.374 65.2759C381.902 58.2214 363.976 48.8083 346.858 39.3742L345.41 42.0016C362.547 51.4459 380.603 60.9323 398.251 68.0577L399.374 65.2759ZM445.075 76.8995C430.91 76.1861 415.359 71.7295 399.374 65.2759L398.251 68.0577C414.379 74.5691 430.283 79.1584 444.925 79.8957L445.075 76.8995ZM443.5 78.3976V78.5H446.5V78.3976H443.5ZM445 80H449V77H445V80ZM449 80H991V77H449V80ZM991 80C1006.75 80 1024.12 75.1751 1041.75 68.0577L1040.63 65.2759C1023.14 72.3343 1006.19 77 991 77V80ZM1041.75 68.0577C1059.4 60.9323 1077.45 51.4459 1094.59 42.0016L1093.14 39.3742C1076.02 48.8083 1058.1 58.2214 1040.63 65.2759L1041.75 68.0577ZM1094.59 42.0016C1099.51 39.2918 1104.35 36.5839 1109.09 33.9351L1107.63 31.3165C1102.89 33.9659 1098.05 36.6694 1093.14 39.3742L1094.59 42.0016ZM1109.09 33.9365L1109.12 33.9198L1107.66 31.2983L1107.63 31.315L1109.09 33.9365ZM1109.12 33.9184C1120.91 27.3264 1132.04 21.1081 1142.08 16.0857L1140.74 13.4024C1130.62 18.4619 1119.43 24.717 1107.66 31.2997L1109.12 33.9184ZM1142.08 16.0857C1149.13 12.5641 1155.59 9.65555 1161.33 7.63034L1160.34 4.80104C1154.42 6.88511 1147.84 9.85469 1140.74 13.4025L1142.08 16.0857ZM1161.33 7.63034C1167.1 5.59756 1172.02 4.5 1176 4.5V1.5C1171.52 1.5 1166.24 2.72076 1160.34 4.80104L1161.33 7.63034ZM1176 4.5H1176.16V1.5H1176V4.5ZM1176.16 4.5H1176.33V1.5H1176.16V4.5ZM1176.33 4.5H1176.5V1.5H1176.33V4.5ZM1176.5 4.5H1176.67V1.5H1176.5V4.5ZM1176.67 4.5H1176.85V1.5H1176.67V4.5ZM1176.85 4.5H1177.02V1.5H1176.85V4.5ZM1177.02 4.5H1177.21V1.5H1177.02V4.5ZM1177.21 4.5H1177.39V1.5H1177.21V4.5ZM1177.39 4.5H1177.58V1.5H1177.39V4.5ZM1177.58 4.5H1177.77V1.5H1177.58V4.5ZM1177.77 4.5H1177.96V1.5H1177.77V4.5ZM1177.96 4.5H1178.16V1.5H1177.96V4.5ZM1178.16 4.5H1178.35V1.5H1178.16V4.5ZM1178.35 4.5H1178.56V1.5H1178.35V4.5ZM1178.56 4.5H1178.76V1.5H1178.56V4.5ZM1178.76 4.5H1178.97V1.5H1178.76V4.5ZM1178.97 4.5H1179.18V1.5H1178.97V4.5ZM1179.18 4.5H1179.39V1.5H1179.18V4.5ZM1179.39 4.5H1179.61V1.5H1179.39V4.5ZM1179.61 4.5H1179.83V1.5H1179.61V4.5ZM1179.83 4.5H1180.05V1.5H1179.83V4.5ZM1180.05 4.5H1180.27V1.5H1180.05V4.5ZM1180.27 4.5H1180.5V1.5H1180.27V4.5ZM1180.5 4.5H1180.73V1.5H1180.5V4.5ZM1180.73 4.5H1180.96V1.5H1180.73V4.5ZM1180.96 4.5H1181.2V1.5H1180.96V4.5ZM1181.2 4.5H1181.44V1.5H1181.2V4.5ZM1181.44 4.5H1181.68V1.5H1181.44V4.5ZM1181.68 4.5H1181.92V1.5H1181.68V4.5ZM1181.92 4.5H1182.17V1.5H1181.92V4.5ZM1182.17 4.5H1182.42V1.5H1182.17V4.5ZM1182.42 4.5H1182.67V1.5H1182.42V4.5ZM1182.67 4.5H1182.93V1.5H1182.67V4.5ZM1182.93 4.5H1183.19V1.5H1182.93V4.5ZM1183.19 4.5H1183.45V1.5H1183.19V4.5ZM1183.45 4.5H1183.71V1.5H1183.45V4.5ZM1183.71 4.5H1183.97V1.5H1183.71V4.5ZM1183.97 4.5H1184.24V1.5H1183.97V4.5ZM1184.24 4.5H1184.51V1.5H1184.24V4.5ZM1184.51 4.5H1184.79V1.5H1184.51V4.5ZM1184.79 4.5H1185.06V1.5H1184.79V4.5ZM1185.06 4.5H1185.34V1.5H1185.06V4.5ZM1185.34 4.5H1185.63V1.5H1185.34V4.5ZM1185.63 4.5H1185.91V1.5H1185.63V4.5ZM1185.91 4.5H1186.2V1.5H1185.91V4.5ZM1186.2 4.5H1186.49V1.5H1186.2V4.5ZM1186.49 4.5H1186.78V1.5H1186.49V4.5ZM1186.78 4.5H1187.07V1.5H1186.78V4.5ZM1187.07 4.5H1187.37V1.5H1187.07V4.5ZM1187.37 4.5H1187.67V1.5H1187.37V4.5ZM1187.67 4.5H1187.97V1.5H1187.67V4.5ZM1187.97 4.5H1188.28V1.5H1187.97V4.5ZM1188.28 4.5H1188.58V1.5H1188.28V4.5ZM1188.58 4.5H1188.89V1.5H1188.58V4.5ZM1188.89 4.5H1189.21V1.5H1188.89V4.5ZM1189.21 4.5H1189.52V1.5H1189.21V4.5ZM1189.52 4.5H1189.84V1.5H1189.52V4.5ZM1189.84 4.5H1190.16V1.5H1189.84V4.5ZM1190.16 4.5H1190.48V1.5H1190.16V4.5ZM1190.48 4.5H1190.81V1.5H1190.48V4.5ZM1190.81 4.5H1191.13V1.5H1190.81V4.5ZM1191.13 4.5H1191.46V1.5H1191.13V4.5ZM1191.46 4.5H1191.8V1.5H1191.46V4.5ZM1191.8 4.5H1192.13V1.5H1191.8V4.5ZM1192.13 4.5H1192.47V1.5H1192.13V4.5ZM1192.47 4.5H1192.81V1.5H1192.47V4.5ZM1192.81 4.5H1193.15V1.5H1192.81V4.5ZM1193.15 4.5H1193.49V1.5H1193.15V4.5ZM1193.49 4.5H1193.84V1.5H1193.49V4.5ZM1193.84 4.5H1194.19V1.5H1193.84V4.5ZM1194.19 4.5H1194.54V1.5H1194.19V4.5ZM1194.54 4.5H1194.89V1.5H1194.54V4.5ZM1194.89 4.5H1195.25V1.5H1194.89V4.5ZM1195.25 4.5H1195.61V1.5H1195.25V4.5ZM1195.61 4.5H1195.97V1.5H1195.61V4.5ZM1195.97 4.5H1196.33V1.5H1195.97V4.5ZM1196.33 4.5H1196.7V1.5H1196.33V4.5ZM1196.7 4.5H1197.06V1.5H1196.7V4.5ZM1197.06 4.5H1197.43V1.5H1197.06V4.5ZM1197.43 4.5H1197.8V1.5H1197.43V4.5ZM1197.8 4.5H1198.18V1.5H1197.8V4.5ZM1198.18 4.5H1198.56V1.5H1198.18V4.5ZM1198.56 4.5H1198.93V1.5H1198.56V4.5ZM1198.93 4.5H1199.31V1.5H1198.93V4.5ZM1199.31 4.5H1199.7V1.5H1199.31V4.5ZM1199.7 4.5H1200.08V1.5H1199.7V4.5ZM1200.08 4.5H1200.47V1.5H1200.08V4.5ZM1200.47 4.5H1200.86V1.5H1200.47V4.5ZM1200.86 4.5H1201.25V1.5H1200.86V4.5ZM1201.25 4.5H1201.65V1.5H1201.25V4.5ZM1201.65 4.5H1202.04V1.5H1201.65V4.5ZM1202.04 4.5H1202.44V1.5H1202.04V4.5ZM1202.44 4.5H1202.84V1.5H1202.44V4.5ZM1202.84 4.5H1203.24V1.5H1202.84V4.5ZM1203.24 4.5H1203.65V1.5H1203.24V4.5ZM1203.65 4.5H1204.06V1.5H1203.65V4.5ZM1204.06 4.5H1204.47V1.5H1204.06V4.5ZM1204.47 4.5H1204.88V1.5H1204.47V4.5ZM1204.88 4.5H1205.29V1.5H1204.88V4.5ZM1205.29 4.5H1205.71V1.5H1205.29V4.5ZM1205.71 4.5H1206.12V1.5H1205.71V4.5ZM1206.12 4.5H1206.54V1.5H1206.12V4.5ZM1206.54 4.5H1206.96V1.5H1206.54V4.5ZM1206.96 4.5H1207.39V1.5H1206.96V4.5ZM1207.39 4.5H1207.81V1.5H1207.39V4.5ZM1207.81 4.5H1208.24V1.5H1207.81V4.5ZM1208.24 4.5H1208.67V1.5H1208.24V4.5ZM1208.67 4.5H1209.1V1.5H1208.67V4.5ZM1209.1 4.5H1209.53V1.5H1209.1V4.5ZM1209.53 4.5H1209.97V1.5H1209.53V4.5ZM1209.97 4.5H1210.41V1.5H1209.97V4.5ZM1210.41 4.5H1210.85V1.5H1210.41V4.5ZM1210.85 4.5H1211.29V1.5H1210.85V4.5ZM1211.29 4.5H1211.73V1.5H1211.29V4.5ZM1211.73 4.5H1212.18V1.5H1211.73V4.5ZM1212.18 4.5H1212.62V1.5H1212.18V4.5ZM1212.62 4.5H1213.07V1.5H1212.62V4.5ZM1213.07 4.5H1213.52V1.5H1213.07V4.5ZM1213.52 4.5H1213.98V1.5H1213.52V4.5ZM1213.98 4.5H1214.43V1.5H1213.98V4.5ZM1214.43 4.5H1214.89V1.5H1214.43V4.5ZM1214.89 4.5H1215.35V1.5H1214.89V4.5ZM1215.35 4.5H1215.81V1.5H1215.35V4.5ZM1215.81 4.5H1216.27V1.5H1215.81V4.5ZM1216.27 4.5H1216.73V1.5H1216.27V4.5ZM1216.73 4.5H1217.2V1.5H1216.73V4.5ZM1217.2 4.5H1217.67V1.5H1217.2V4.5ZM1217.67 4.5H1218.14V1.5H1217.67V4.5ZM1218.14 4.5H1218.61V1.5H1218.14V4.5ZM1218.61 4.5H1219.08V1.5H1218.61V4.5ZM1219.08 4.5H1219.55V1.5H1219.08V4.5ZM1219.55 4.5H1220.03V1.5H1219.55V4.5ZM1220.03 4.5H1220.51V1.5H1220.03V4.5ZM1220.51 4.5H1220.99V1.5H1220.51V4.5ZM1220.99 4.5H1221.47V1.5H1220.99V4.5ZM1221.47 4.5H1221.96V1.5H1221.47V4.5ZM1221.96 4.5H1222.44V1.5H1221.96V4.5ZM1222.44 4.5H1222.93V1.5H1222.44V4.5ZM1222.93 4.5H1223.42V1.5H1222.93V4.5ZM1223.42 4.5H1223.91V1.5H1223.42V4.5ZM1223.91 4.5H1224.4V1.5H1223.91V4.5ZM1224.4 4.5H1224.89V1.5H1224.4V4.5ZM1224.89 4.5H1225.39V1.5H1224.89V4.5ZM1225.39 4.5H1225.88V1.5H1225.39V4.5ZM1225.88 4.5H1226.38V1.5H1225.88V4.5ZM1226.38 4.5H1226.88V1.5H1226.38V4.5ZM1226.88 4.5H1227.38V1.5H1226.88V4.5ZM1227.38 4.5H1227.89V1.5H1227.38V4.5ZM1227.89 4.5H1228.39V1.5H1227.89V4.5ZM1228.39 4.5H1228.9V1.5H1228.39V4.5ZM1228.9 4.5H1229.41V1.5H1228.9V4.5ZM1229.41 4.5H1229.92V1.5H1229.41V4.5ZM1229.92 4.5H1230.43V1.5H1229.92V4.5ZM1230.43 4.5H1230.94V1.5H1230.43V4.5ZM1230.94 4.5H1231.46V1.5H1230.94V4.5ZM1231.46 4.5H1231.97V1.5H1231.46V4.5ZM1231.97 4.5H1232.49V1.5H1231.97V4.5ZM1232.49 4.5H1233.01V1.5H1232.49V4.5ZM1233.01 4.5H1233.53V1.5H1233.01V4.5ZM1233.53 4.5H1234.05V1.5H1233.53V4.5ZM1234.05 4.5H1234.58V1.5H1234.05V4.5ZM1234.58 4.5H1235.1V1.5H1234.58V4.5ZM1235.1 4.5H1235.63V1.5H1235.1V4.5ZM1235.63 4.5H1236.16V1.5H1235.63V4.5ZM1236.16 4.5H1236.68V1.5H1236.16V4.5ZM1236.68 4.5H1237.22V1.5H1236.68V4.5ZM1237.22 4.5H1237.75V1.5H1237.22V4.5ZM1237.75 4.5H1238.28V1.5H1237.75V4.5ZM1238.28 4.5H1238.82V1.5H1238.28V4.5ZM1238.82 4.5H1239.35V1.5H1238.82V4.5ZM1239.35 4.5H1239.89V1.5H1239.35V4.5ZM1239.89 4.5H1240.43V1.5H1239.89V4.5ZM1240.43 4.5H1240.97V1.5H1240.43V4.5ZM1240.97 4.5H1241.51V1.5H1240.97V4.5ZM1241.51 4.5H1242.06V1.5H1241.51V4.5ZM1242.06 4.5H1242.6V1.5H1242.06V4.5ZM1242.6 4.5H1243.15V1.5H1242.6V4.5ZM1243.15 4.5H1243.69V1.5H1243.15V4.5ZM1243.69 4.5H1244.24V1.5H1243.69V4.5ZM1244.24 4.5H1244.79V1.5H1244.24V4.5ZM1244.79 4.5H1245.34V1.5H1244.79V4.5ZM1245.34 4.5H1245.9V1.5H1245.34V4.5ZM1245.9 4.5H1246.45V1.5H1245.9V4.5ZM1246.45 4.5H1247V1.5H1246.45V4.5ZM1247 4.5H1247.56V1.5H1247V4.5ZM1247.56 4.5H1248.12V1.5H1247.56V4.5ZM1248.12 4.5H1248.68V1.5H1248.12V4.5ZM1248.68 4.5H1249.24V1.5H1248.68V4.5ZM1249.24 4.5H1249.8V1.5H1249.24V4.5ZM1249.8 4.5H1250.36V1.5H1249.8V4.5ZM1250.36 4.5H1250.92V1.5H1250.36V4.5ZM1250.92 4.5H1251.49V1.5H1250.92V4.5ZM1251.49 4.5H1252.06V1.5H1251.49V4.5ZM1252.06 4.5H1252.62V1.5H1252.06V4.5ZM1252.62 4.5H1253.19V1.5H1252.62V4.5ZM1253.19 4.5H1253.76V1.5H1253.19V4.5ZM1253.76 4.5H1254.33V1.5H1253.76V4.5ZM1254.33 4.5H1254.9V1.5H1254.33V4.5ZM1254.9 4.5H1255.48V1.5H1254.9V4.5ZM1255.48 4.5H1256.05V1.5H1255.48V4.5ZM1256.05 4.5H1256.62V1.5H1256.05V4.5ZM1256.62 4.5H1257.2V1.5H1256.62V4.5ZM1257.2 4.5H1257.78V1.5H1257.2V4.5ZM1257.78 4.5H1258.36V1.5H1257.78V4.5ZM1258.36 4.5H1258.94V1.5H1258.36V4.5ZM1258.94 4.5H1259.52V1.5H1258.94V4.5ZM1259.52 4.5H1260.1V1.5H1259.52V4.5ZM1260.1 4.5H1260.68V1.5H1260.1V4.5ZM1260.68 4.5H1261.26V1.5H1260.68V4.5ZM1261.26 4.5H1261.85V1.5H1261.26V4.5ZM1261.85 4.5H1262.43V1.5H1261.85V4.5ZM1262.43 4.5H1263.02V1.5H1262.43V4.5ZM1263.02 4.5H1263.61V1.5H1263.02V4.5ZM1263.61 4.5H1264.2V1.5H1263.61V4.5ZM1264.2 4.5H1264.78V1.5H1264.2V4.5ZM1264.78 4.5H1265.38V1.5H1264.78V4.5ZM1265.38 4.5H1265.97V1.5H1265.38V4.5ZM1265.97 4.5H1266.56V1.5H1265.97V4.5ZM1266.56 4.5H1267.15V1.5H1266.56V4.5ZM1267.15 4.5H1267.75V1.5H1267.15V4.5ZM1267.75 4.5H1268.34V1.5H1267.75V4.5ZM1268.34 4.5H1268.94V1.5H1268.34V4.5ZM1268.94 4.5H1269.53V1.5H1268.94V4.5ZM1269.53 4.5H1270.13V1.5H1269.53V4.5ZM1270.13 4.5H1270.73V1.5H1270.13V4.5ZM1270.73 4.5H1271.33V1.5H1270.73V4.5ZM1271.33 4.5H1271.93V1.5H1271.33V4.5ZM1271.93 4.5H1272.53V1.5H1271.93V4.5ZM1272.53 4.5H1273.13V1.5H1272.53V4.5ZM1273.13 4.5H1273.74V1.5H1273.13V4.5ZM1273.74 4.5H1274.34V1.5H1273.74V4.5ZM1274.34 4.5H1274.94V1.5H1274.34V4.5ZM1274.94 4.5H1275.55V1.5H1274.94V4.5ZM1275.55 4.5H1276.15V1.5H1275.55V4.5ZM1276.15 4.5H1276.76V1.5H1276.15V4.5ZM1276.76 4.5H1277.37V1.5H1276.76V4.5ZM1277.37 4.5H1277.98V1.5H1277.37V4.5ZM1277.98 4.5H1278.59V1.5H1277.98V4.5ZM1278.59 4.5H1279.2V1.5H1278.59V4.5ZM1279.2 4.5H1279.81V1.5H1279.2V4.5ZM1279.81 4.5H1280.42V1.5H1279.81V4.5ZM1280.42 4.5H1281.03V1.5H1280.42V4.5ZM1281.03 4.5H1281.64V1.5H1281.03V4.5ZM1281.64 4.5H1282.25V1.5H1281.64V4.5ZM1282.25 4.5H1282.87V1.5H1282.25V4.5ZM1282.87 4.5H1283.48V1.5H1282.87V4.5ZM1283.48 4.5H1284.1V1.5H1283.48V4.5ZM1284.1 4.5H1284.71V1.5H1284.1V4.5ZM1284.71 4.5H1285.33V1.5H1284.71V4.5ZM1285.33 4.5H1285.95V1.5H1285.33V4.5ZM1285.95 4.5H1286.56V1.5H1285.95V4.5ZM1286.56 4.5H1287.18V1.5H1286.56V4.5ZM1287.18 4.5H1287.8V1.5H1287.18V4.5ZM1287.8 4.5H1288.42V1.5H1287.8V4.5ZM1288.42 4.5H1289.04V1.5H1288.42V4.5ZM1289.04 4.5H1289.66V1.5H1289.04V4.5ZM1289.66 4.5H1290.28V1.5H1289.66V4.5ZM1290.28 4.5H1290.91V1.5H1290.28V4.5ZM1290.91 4.5H1291.53V1.5H1290.91V4.5ZM1291.53 4.5H1292.15V1.5H1291.53V4.5ZM1292.15 4.5H1292.77V1.5H1292.15V4.5ZM1292.77 4.5H1293.4V1.5H1292.77V4.5ZM1293.4 4.5H1294.02V1.5H1293.4V4.5ZM1294.02 4.5H1294.65V1.5H1294.02V4.5ZM1294.65 4.5H1295.27V1.5H1294.65V4.5ZM1295.27 4.5H1295.9V1.5H1295.27V4.5ZM1295.9 4.5H1296.52V1.5H1295.9V4.5ZM1296.52 4.5H1297.15V1.5H1296.52V4.5ZM1297.15 4.5H1297.78V1.5H1297.15V4.5ZM1297.78 4.5H1298.41V1.5H1297.78V4.5ZM1298.41 4.5H1299.03V1.5H1298.41V4.5ZM1299.03 4.5H1299.66V1.5H1299.03V4.5ZM1299.66 4.5H1300.29V1.5H1299.66V4.5ZM1300.29 4.5H1300.92V1.5H1300.29V4.5ZM1300.92 4.5H1301.55V1.5H1300.92V4.5ZM1301.55 4.5H1302.18V1.5H1301.55V4.5ZM1302.18 4.5H1302.81V1.5H1302.18V4.5ZM1302.81 4.5H1303.44V1.5H1302.81V4.5ZM1303.44 4.5H1304.07V1.5H1303.44V4.5ZM1304.07 4.5H1304.7V1.5H1304.07V4.5ZM1304.7 4.5H1305.34V1.5H1304.7V4.5ZM1305.34 4.5H1305.97V1.5H1305.34V4.5ZM1305.97 4.5H1306.6V1.5H1305.97V4.5ZM1306.6 4.5H1307.23V1.5H1306.6V4.5ZM1307.23 4.5H1307.87V1.5H1307.23V4.5ZM1307.87 4.5H1308.5V1.5H1307.87V4.5ZM1308.5 4.5H1309.13V1.5H1308.5V4.5ZM1309.13 4.5H1309.77V1.5H1309.13V4.5ZM1309.77 4.5H1310.4V1.5H1309.77V4.5ZM1310.4 4.5H1311.04V1.5H1310.4V4.5ZM1311.04 4.5H1311.67V1.5H1311.04V4.5ZM1311.67 4.5H1312.3V1.5H1311.67V4.5ZM1312.3 4.5H1312.94V1.5H1312.3V4.5ZM1312.94 4.5H1313.57V1.5H1312.94V4.5ZM1313.57 4.5H1314.21V1.5H1313.57V4.5ZM1314.21 4.5H1314.85V1.5H1314.21V4.5ZM1314.85 4.5H1315.48V1.5H1314.85V4.5ZM1315.48 4.5H1316.12V1.5H1315.48V4.5ZM1316.12 4.5H1316.75V1.5H1316.12V4.5ZM1316.75 4.5H1317.39V1.5H1316.75V4.5ZM1317.39 4.5H1318.03V1.5H1317.39V4.5ZM1318.03 4.5H1318.66V1.5H1318.03V4.5ZM1318.66 4.5H1319.3V1.5H1318.66V4.5ZM1319.3 4.5H1319.93V1.5H1319.3V4.5ZM1319.93 4.5H1320.57V1.5H1319.93V4.5ZM1320.57 4.5H1321.21V1.5H1320.57V4.5ZM1321.21 4.5H1321.85V1.5H1321.21V4.5ZM1321.85 4.5H1322.48V1.5H1321.85V4.5ZM1322.48 4.5H1323.12V1.5H1322.48V4.5ZM1323.12 4.5H1323.76V1.5H1323.12V4.5ZM1323.76 4.5H1324.39V1.5H1323.76V4.5ZM1324.39 4.5H1325.03V1.5H1324.39V4.5ZM1325.03 4.5H1325.67V1.5H1325.03V4.5ZM1325.67 4.5H1326.31V1.5H1325.67V4.5ZM1326.31 4.5H1326.94V1.5H1326.31V4.5ZM1326.94 4.5H1327.58V1.5H1326.94V4.5ZM1327.58 4.5H1328.22V1.5H1327.58V4.5ZM1328.22 4.5H1328.85V1.5H1328.22V4.5ZM1328.85 4.5H1329.49V1.5H1328.85V4.5ZM1329.49 4.5H1330.13V1.5H1329.49V4.5ZM1330.13 4.5H1330.76V1.5H1330.13V4.5ZM1330.76 4.5H1331.4V1.5H1330.76V4.5ZM1331.4 4.5H1332.04V1.5H1331.4V4.5ZM1332.04 4.5H1332.68V1.5H1332.04V4.5ZM1332.68 4.5H1333.31V1.5H1332.68V4.5ZM1333.31 4.5H1333.95V1.5H1333.31V4.5ZM1333.95 4.5H1334.59V1.5H1333.95V4.5ZM1334.59 4.5H1335.22V1.5H1334.59V4.5ZM1335.22 4.5H1335.86V1.5H1335.22V4.5ZM1335.86 4.5H1336.49V1.5H1335.86V4.5ZM1336.49 4.5H1337.13V1.5H1336.49V4.5ZM1337.13 4.5H1337.77V1.5H1337.13V4.5ZM1337.77 4.5H1338.4V1.5H1337.77V4.5ZM1338.4 4.5H1339.04V1.5H1338.4V4.5ZM1339.04 4.5H1339.67V1.5H1339.04V4.5ZM1339.67 4.5H1340.31V1.5H1339.67V4.5ZM1340.31 4.5H1340.94V1.5H1340.31V4.5ZM1340.94 4.5H1341.58V1.5H1340.94V4.5ZM1341.58 4.5H1342.21V1.5H1341.58V4.5ZM1342.21 4.5H1342.84V1.5H1342.21V4.5ZM1342.84 4.5H1343.48V1.5H1342.84V4.5ZM1343.48 4.5H1344.11V1.5H1343.48V4.5ZM1344.11 4.5H1344.74V1.5H1344.11V4.5ZM1344.74 4.5H1345.38V1.5H1344.74V4.5ZM1345.38 4.5H1346.01V1.5H1345.38V4.5ZM1346.01 4.5H1346.64V1.5H1346.01V4.5ZM1346.64 4.5H1347.27V1.5H1346.64V4.5ZM1347.27 4.5H1347.91V1.5H1347.27V4.5ZM1347.91 4.5H1348.54V1.5H1347.91V4.5ZM1348.54 4.5H1349.17V1.5H1348.54V4.5ZM1349.17 4.5H1349.8V1.5H1349.17V4.5ZM1349.8 4.5H1350.43V1.5H1349.8V4.5ZM1350.43 4.5H1351.06V1.5H1350.43V4.5ZM1351.06 4.5H1351.69V1.5H1351.06V4.5ZM1351.69 4.5H1352.32V1.5H1351.69V4.5ZM1352.32 4.5H1352.95V1.5H1352.32V4.5ZM1352.95 4.5H1353.58V1.5H1352.95V4.5ZM1353.58 4.5H1354.2V1.5H1353.58V4.5ZM1354.2 4.5H1354.83V1.5H1354.2V4.5ZM1354.83 4.5H1355.46V1.5H1354.83V4.5ZM1355.46 4.5H1356.09V1.5H1355.46V4.5ZM1356.09 4.5H1356.71V1.5H1356.09V4.5ZM1356.71 4.5H1357.34V1.5H1356.71V4.5ZM1357.34 4.5H1357.96V1.5H1357.34V4.5ZM1357.96 4.5H1358.59V1.5H1357.96V4.5ZM1358.59 4.5H1359.21V1.5H1358.59V4.5ZM1359.21 4.5H1359.84V1.5H1359.21V4.5ZM1359.84 4.5H1360.46V1.5H1359.84V4.5ZM1360.46 4.5H1361.08V1.5H1360.46V4.5ZM1361.08 4.5H1361.71V1.5H1361.08V4.5ZM1361.71 4.5H1362.33V1.5H1361.71V4.5ZM1362.33 4.5H1362.95V1.5H1362.33V4.5ZM1362.95 4.5H1363.57V1.5H1362.95V4.5ZM1363.57 4.5H1364.19V1.5H1363.57V4.5ZM1364.19 4.5H1364.81V1.5H1364.19V4.5ZM1364.81 4.5H1365.43V1.5H1364.81V4.5ZM1365.43 4.5H1366.05V1.5H1365.43V4.5ZM1366.05 4.5H1366.66V1.5H1366.05V4.5ZM1366.66 4.5H1367.28V1.5H1366.66V4.5ZM1367.28 4.5H1367.9V1.5H1367.28V4.5ZM1367.9 4.5H1368.51V1.5H1367.9V4.5ZM1368.51 4.5H1369.13V1.5H1368.51V4.5ZM1369.13 4.5H1369.74V1.5H1369.13V4.5ZM1369.74 4.5H1370.36V1.5H1369.74V4.5ZM1370.36 4.5H1370.97V1.5H1370.36V4.5ZM1370.97 4.5H1371.58V1.5H1370.97V4.5ZM1371.58 4.5H1372.2V1.5H1371.58V4.5ZM1372.2 4.5H1372.81V1.5H1372.2V4.5ZM1372.81 4.5H1373.42V1.5H1372.81V4.5ZM1373.42 4.5H1374.03V1.5H1373.42V4.5ZM1374.03 4.5H1374.64V1.5H1374.03V4.5ZM1374.64 4.5H1375.24V1.5H1374.64V4.5ZM1375.24 4.5H1375.85V1.5H1375.24V4.5ZM1375.85 4.5H1376.46V1.5H1375.85V4.5ZM1376.46 4.5H1377.06V1.5H1376.46V4.5ZM1377.06 4.5H1377.67V1.5H1377.06V4.5ZM1377.67 4.5H1378.27V1.5H1377.67V4.5ZM1378.27 4.5H1378.88V1.5H1378.27V4.5ZM1378.88 4.5H1379.48V1.5H1378.88V4.5ZM1379.48 4.5H1380.08V1.5H1379.48V4.5ZM1380.08 4.5H1380.68V1.5H1380.08V4.5ZM1380.68 4.5H1381.28V1.5H1380.68V4.5ZM1381.28 4.5H1381.88V1.5H1381.28V4.5ZM1381.88 4.5H1382.48V1.5H1381.88V4.5ZM1382.48 4.5H1383.08V1.5H1382.48V4.5ZM1383.08 4.5H1383.68V1.5H1383.08V4.5ZM1383.68 4.5H1384.27V1.5H1383.68V4.5ZM1384.27 4.5H1384.87V1.5H1384.27V4.5ZM1384.87 4.5H1385.46V1.5H1384.87V4.5ZM1385.46 4.5H1386.05V1.5H1385.46V4.5ZM1386.05 4.5H1386.65V1.5H1386.05V4.5ZM1386.65 4.5H1387.24V1.5H1386.65V4.5ZM1387.24 4.5H1387.83V1.5H1387.24V4.5ZM1387.83 4.5H1388.42V1.5H1387.83V4.5ZM1388.42 4.5H1389.01V1.5H1388.42V4.5ZM1389.01 4.5H1389.59V1.5H1389.01V4.5ZM1389.59 4.5H1390.18V1.5H1389.59V4.5ZM1390.18 4.5H1390.77V1.5H1390.18V4.5ZM1390.77 4.5H1391.35V1.5H1390.77V4.5ZM1391.35 4.5H1391.93V1.5H1391.35V4.5ZM1391.93 4.5H1392.52V1.5H1391.93V4.5ZM1392.52 4.5H1393.1V1.5H1392.52V4.5ZM1393.1 4.5H1393.68V1.5H1393.1V4.5ZM1393.68 4.5H1394.26V1.5H1393.68V4.5ZM1394.26 4.5H1394.84V1.5H1394.26V4.5ZM1394.84 4.5H1395.41V1.5H1394.84V4.5ZM1395.41 4.5H1395.99V1.5H1395.41V4.5ZM1395.99 4.5H1396.57V1.5H1395.99V4.5ZM1396.57 4.5H1397.14V1.5H1396.57V4.5ZM1397.14 4.5H1397.71V1.5H1397.14V4.5ZM1397.71 4.5H1398.28V1.5H1397.71V4.5ZM1398.28 4.5H1398.86V1.5H1398.28V4.5ZM1398.86 4.5H1399.42V1.5H1398.86V4.5ZM1399.42 4.5H1399.99V1.5H1399.42V4.5ZM1399.99 4.5H1400.56V1.5H1399.99V4.5ZM1400.56 4.5H1401.13V1.5H1400.56V4.5ZM1401.13 4.5H1401.69V1.5H1401.13V4.5ZM1401.69 4.5H1402.25V1.5H1401.69V4.5ZM1402.25 4.5H1402.82V1.5H1402.25V4.5ZM1402.82 4.5H1403.38V1.5H1402.82V4.5ZM1403.38 4.5H1403.94V1.5H1403.38V4.5ZM1403.94 4.5H1404.5V1.5H1403.94V4.5ZM1404.5 4.5H1405.06V1.5H1404.5V4.5ZM1405.06 4.5H1405.61V1.5H1405.06V4.5ZM1405.61 4.5H1406.17V1.5H1405.61V4.5ZM1406.17 4.5H1406.72V1.5H1406.17V4.5ZM1406.72 4.5H1407.27V1.5H1406.72V4.5ZM1407.27 4.5H1407.82V1.5H1407.27V4.5ZM1407.82 4.5H1408.37V1.5H1407.82V4.5ZM1408.37 4.5H1408.92V1.5H1408.37V4.5ZM1408.92 4.5H1409.47V1.5H1408.92V4.5ZM1409.47 4.5H1410.02V1.5H1409.47V4.5ZM1410.02 4.5H1410.56V1.5H1410.02V4.5ZM1410.56 4.5H1411.1V1.5H1410.56V4.5ZM1411.1 4.5H1411.65V1.5H1411.1V4.5ZM1411.65 4.5H1412.19V1.5H1411.65V4.5ZM1412.19 4.5H1412.73V1.5H1412.19V4.5ZM1412.73 4.5H1413.26V1.5H1412.73V4.5ZM1413.26 4.5H1413.8V1.5H1413.26V4.5ZM1413.8 4.5H1414.34V1.5H1413.8V4.5ZM1414.34 4.5H1414.87V1.5H1414.34V4.5ZM1414.87 4.5H1415.4V1.5H1414.87V4.5ZM1415.4 4.5H1415.93V1.5H1415.4V4.5ZM1415.93 4.5H1416.46V1.5H1415.93V4.5ZM1416.46 4.5H1416.99V1.5H1416.46V4.5ZM1416.99 4.5H1417.52V1.5H1416.99V4.5ZM1417.52 4.5H1418.04V1.5H1417.52V4.5ZM1418.04 4.5H1418.57V1.5H1418.04V4.5ZM1418.57 4.5H1419.09V1.5H1418.57V4.5ZM1419.09 4.5H1419.61V1.5H1419.09V4.5ZM1419.61 4.5H1420.13V1.5H1419.61V4.5ZM1420.13 4.5H1420.65V1.5H1420.13V4.5ZM1420.65 4.5H1421.16V1.5H1420.65V4.5ZM1421.16 4.5H1421.68V1.5H1421.16V4.5ZM1421.68 4.5H1422.19V1.5H1421.68V4.5ZM1422.19 4.5H1422.7V1.5H1422.19V4.5ZM1422.7 4.5H1423.21V1.5H1422.7V4.5ZM1423.21 4.5H1423.72V1.5H1423.21V4.5ZM1423.72 4.5H1424.23V1.5H1423.72V4.5ZM1424.23 4.5H1424.73V1.5H1424.23V4.5ZM1424.73 4.5H1425.24V1.5H1424.73V4.5ZM1425.24 4.5H1425.74V1.5H1425.24V4.5ZM1425.74 4.5H1426.24V1.5H1425.74V4.5ZM1426.24 4.5H1426.74V1.5H1426.24V4.5ZM1426.74 4.5H1427.23V1.5H1426.74V4.5ZM1427.23 4.5H1427.73V1.5H1427.23V4.5ZM1427.73 4.5H1428.22V1.5H1427.73V4.5ZM1428.22 4.5H1428.71V1.5H1428.22V4.5ZM1428.71 4.5H1429.21V1.5H1428.71V4.5ZM1429.21 4.5H1429.69V1.5H1429.21V4.5ZM1429.69 4.5H1430.18V1.5H1429.69V4.5ZM1430.18 4.5H1430.67V1.5H1430.18V4.5ZM1430.67 4.5H1431.15V1.5H1430.67V4.5ZM1431.15 4.5H1431.63V1.5H1431.15V4.5ZM1431.63 4.5H1432.11V1.5H1431.63V4.5ZM1432.11 4.5H1432.59V1.5H1432.11V4.5ZM1432.59 4.5H1433.07V1.5H1432.59V4.5ZM1433.07 4.5H1433.54V1.5H1433.07V4.5ZM1433.54 4.5H1434.02V1.5H1433.54V4.5ZM1434.02 4.5H1434.49V1.5H1434.02V4.5ZM1434.49 4.5H1434.96V1.5H1434.49V4.5ZM1434.96 4.5H1435.42V1.5H1434.96V4.5ZM1435.42 4.5H1435.89V1.5H1435.42V4.5ZM1435.89 4.5H1436.35V1.5H1435.89V4.5ZM1436.35 4.5H1436.82V1.5H1436.35V4.5ZM1436.82 4.5H1437.28V1.5H1436.82V4.5ZM1437.28 4.5H1437.74V1.5H1437.28V4.5ZM1437.74 4.5H1438.19V1.5H1437.74V4.5ZM1438.19 4.5H1438.65V1.5H1438.19V4.5ZM1438.65 4.5H1439.1V1.5H1438.65V4.5ZM1439.1 4.5H1439.55V1.5H1439.1V4.5ZM1439.55 4.5H1440V1.5H1439.55V4.5ZM1441.5 3V2H1438.5V3H1441.5ZM1440 0.5H1439.55V3.5H1440V0.5ZM1439.55 0.5H1439.1V3.5H1439.55V0.5ZM1439.1 0.5H1438.65V3.5H1439.1V0.5ZM1438.65 0.5H1438.19V3.5H1438.65V0.5ZM1438.19 0.5H1437.74V3.5H1438.19V0.5ZM1437.74 0.5H1437.28V3.5H1437.74V0.5ZM1437.28 0.5H1436.82V3.5H1437.28V0.5ZM1436.82 0.5H1436.35V3.5H1436.82V0.5ZM1436.35 0.5H1435.89V3.5H1436.35V0.5ZM1435.89 0.5H1435.42V3.5H1435.89V0.5ZM1435.42 0.5H1434.96V3.5H1435.42V0.5ZM1434.96 0.5H1434.49V3.5H1434.96V0.5ZM1434.49 0.5H1434.02V3.5H1434.49V0.5ZM1434.02 0.5H1433.54V3.5H1434.02V0.5ZM1433.54 0.5H1433.07V3.5H1433.54V0.5ZM1433.07 0.5H1432.59V3.5H1433.07V0.5ZM1432.59 0.5H1432.11V3.5H1432.59V0.5ZM1432.11 0.5H1431.63V3.5H1432.11V0.5ZM1431.63 0.5H1431.15V3.5H1431.63V0.5ZM1431.15 0.5H1430.67V3.5H1431.15V0.5ZM1430.67 0.5H1430.18V3.5H1430.67V0.5ZM1430.18 0.5H1429.69V3.5H1430.18V0.5ZM1429.69 0.5H1429.21V3.5H1429.69V0.5ZM1429.21 0.5H1428.71V3.5H1429.21V0.5ZM1428.71 0.5H1428.22V3.5H1428.71V0.5ZM1428.22 0.5H1427.73V3.5H1428.22V0.5ZM1427.73 0.5H1427.23V3.5H1427.73V0.5ZM1427.23 0.5H1426.74V3.5H1427.23V0.5ZM1426.74 0.5H1426.24V3.5H1426.74V0.5ZM1426.24 0.5H1425.74V3.5H1426.24V0.5ZM1425.74 0.5H1425.24V3.5H1425.74V0.5ZM1425.24 0.5H1424.73V3.5H1425.24V0.5ZM1424.73 0.5H1424.23V3.5H1424.73V0.5ZM1424.23 0.5H1423.72V3.5H1424.23V0.5ZM1423.72 0.5H1423.21V3.5H1423.72V0.5ZM1423.21 0.5H1422.7V3.5H1423.21V0.5ZM1422.7 0.5H1422.19V3.5H1422.7V0.5ZM1422.19 0.5H1421.68V3.5H1422.19V0.5ZM1421.68 0.5H1421.16V3.5H1421.68V0.5ZM1421.16 0.5H1420.65V3.5H1421.16V0.5ZM1420.65 0.5H1420.13V3.5H1420.65V0.5ZM1420.13 0.5H1419.61V3.5H1420.13V0.5ZM1419.61 0.5H1419.09V3.5H1419.61V0.5ZM1419.09 0.5H1418.57V3.5H1419.09V0.5ZM1418.57 0.5H1418.04V3.5H1418.57V0.5ZM1418.04 0.5H1417.52V3.5H1418.04V0.5ZM1417.52 0.5H1416.99V3.5H1417.52V0.5ZM1416.99 0.5H1416.46V3.5H1416.99V0.5ZM1416.46 0.5H1415.93V3.5H1416.46V0.5ZM1415.93 0.5H1415.4V3.5H1415.93V0.5ZM1415.4 0.5H1414.87V3.5H1415.4V0.5ZM1414.87 0.5H1414.34V3.5H1414.87V0.5ZM1414.34 0.5H1413.8V3.5H1414.34V0.5ZM1413.8 0.5H1413.26V3.5H1413.8V0.5ZM1413.26 0.5H1412.73V3.5H1413.26V0.5ZM1412.73 0.5H1412.19V3.5H1412.73V0.5ZM1412.19 0.5H1411.65V3.5H1412.19V0.5ZM1411.65 0.5H1411.1V3.5H1411.65V0.5ZM1411.1 0.5H1410.56V3.5H1411.1V0.5ZM1410.56 0.5H1410.02V3.5H1410.56V0.5ZM1410.02 0.5H1409.47V3.5H1410.02V0.5ZM1409.47 0.5H1408.92V3.5H1409.47V0.5ZM1408.92 0.5H1408.37V3.5H1408.92V0.5ZM1408.37 0.5H1407.82V3.5H1408.37V0.5ZM1407.82 0.5H1407.27V3.5H1407.82V0.5ZM1407.27 0.5H1406.72V3.5H1407.27V0.5ZM1406.72 0.5H1406.17V3.5H1406.72V0.5ZM1406.17 0.5H1405.61V3.5H1406.17V0.5ZM1405.61 0.5H1405.06V3.5H1405.61V0.5ZM1405.06 0.5H1404.5V3.5H1405.06V0.5ZM1404.5 0.5H1403.94V3.5H1404.5V0.5ZM1403.94 0.5H1403.38V3.5H1403.94V0.5ZM1403.38 0.5H1402.82V3.5H1403.38V0.5ZM1402.82 0.5H1402.25V3.5H1402.82V0.5ZM1402.25 0.5H1401.69V3.5H1402.25V0.5ZM1401.69 0.5H1401.13V3.5H1401.69V0.5ZM1401.13 0.5H1400.56V3.5H1401.13V0.5ZM1400.56 0.5H1399.99V3.5H1400.56V0.5ZM1399.99 0.5H1399.42V3.5H1399.99V0.5ZM1399.42 0.5H1398.86V3.5H1399.42V0.5ZM1398.86 0.5H1398.28V3.5H1398.86V0.5ZM1398.28 0.5H1397.71V3.5H1398.28V0.5ZM1397.71 0.5H1397.14V3.5H1397.71V0.5ZM1397.14 0.5H1396.57V3.5H1397.14V0.5ZM1396.57 0.5H1395.99V3.5H1396.57V0.5ZM1395.99 0.5H1395.41V3.5H1395.99V0.5ZM1395.41 0.5H1394.84V3.5H1395.41V0.5ZM1394.84 0.5H1394.26V3.5H1394.84V0.5ZM1394.26 0.5H1393.68V3.5H1394.26V0.5ZM1393.68 0.5H1393.1V3.5H1393.68V0.5ZM1393.1 0.5H1392.52V3.5H1393.1V0.5ZM1392.52 0.5H1391.93V3.5H1392.52V0.5ZM1391.93 0.5H1391.35V3.5H1391.93V0.5ZM1391.35 0.5H1390.77V3.5H1391.35V0.5ZM1390.77 0.5H1390.18V3.5H1390.77V0.5ZM1390.18 0.5H1389.59V3.5H1390.18V0.5ZM1389.59 0.5H1389.01V3.5H1389.59V0.5ZM1389.01 0.5H1388.42V3.5H1389.01V0.5ZM1388.42 0.5H1387.83V3.5H1388.42V0.5ZM1387.83 0.5H1387.24V3.5H1387.83V0.5ZM1387.24 0.5H1386.65V3.5H1387.24V0.5ZM1386.65 0.5H1386.05V3.5H1386.65V0.5ZM1386.05 0.5H1385.46V3.5H1386.05V0.5ZM1385.46 0.5H1384.87V3.5H1385.46V0.5ZM1384.87 0.5H1384.27V3.5H1384.87V0.5ZM1384.27 0.5H1383.68V3.5H1384.27V0.5ZM1383.68 0.5H1383.08V3.5H1383.68V0.5ZM1383.08 0.5H1382.48V3.5H1383.08V0.5ZM1382.48 0.5H1381.88V3.5H1382.48V0.5ZM1381.88 0.5H1381.28V3.5H1381.88V0.5ZM1381.28 0.5H1380.68V3.5H1381.28V0.5ZM1380.68 0.5H1380.08V3.5H1380.68V0.5ZM1380.08 0.5H1379.48V3.5H1380.08V0.5ZM1379.48 0.5H1378.88V3.5H1379.48V0.5ZM1378.88 0.5H1378.27V3.5H1378.88V0.5ZM1378.27 0.5H1377.67V3.5H1378.27V0.5ZM1377.67 0.5H1377.06V3.5H1377.67V0.5ZM1377.06 0.5H1376.46V3.5H1377.06V0.5ZM1376.46 0.5H1375.85V3.5H1376.46V0.5ZM1375.85 0.5H1375.24V3.5H1375.85V0.5ZM1375.24 0.5H1374.64V3.5H1375.24V0.5ZM1374.64 0.5H1374.03V3.5H1374.64V0.5ZM1374.03 0.5H1373.42V3.5H1374.03V0.5ZM1373.42 0.5H1372.81V3.5H1373.42V0.5ZM1372.81 0.5H1372.2V3.5H1372.81V0.5ZM1372.2 0.5H1371.58V3.5H1372.2V0.5ZM1371.58 0.5H1370.97V3.5H1371.58V0.5ZM1370.97 0.5H1370.36V3.5H1370.97V0.5ZM1370.36 0.5H1369.74V3.5H1370.36V0.5ZM1369.74 0.5H1369.13V3.5H1369.74V0.5ZM1369.13 0.5H1368.51V3.5H1369.13V0.5ZM1368.51 0.5H1367.9V3.5H1368.51V0.5ZM1367.9 0.5H1367.28V3.5H1367.9V0.5ZM1367.28 0.5H1366.66V3.5H1367.28V0.5ZM1366.66 0.5H1366.05V3.5H1366.66V0.5ZM1366.05 0.5H1365.43V3.5H1366.05V0.5ZM1365.43 0.5H1364.81V3.5H1365.43V0.5ZM1364.81 0.5H1364.19V3.5H1364.81V0.5ZM1364.19 0.5H1363.57V3.5H1364.19V0.5ZM1363.57 0.5H1362.95V3.5H1363.57V0.5ZM1362.95 0.5H1362.33V3.5H1362.95V0.5ZM1362.33 0.5H1361.71V3.5H1362.33V0.5ZM1361.71 0.5H1361.08V3.5H1361.71V0.5ZM1361.08 0.5H1360.46V3.5H1361.08V0.5ZM1360.46 0.5H1359.84V3.5H1360.46V0.5ZM1359.84 0.5H1359.21V3.5H1359.84V0.5ZM1359.21 0.5H1358.59V3.5H1359.21V0.5ZM1358.59 0.5H1357.96V3.5H1358.59V0.5ZM1357.96 0.5H1357.34V3.5H1357.96V0.5ZM1357.34 0.5H1356.71V3.5H1357.34V0.5ZM1356.71 0.5H1356.09V3.5H1356.71V0.5ZM1356.09 0.5H1355.46V3.5H1356.09V0.5ZM1355.46 0.5H1354.83V3.5H1355.46V0.5ZM1354.83 0.5H1354.2V3.5H1354.83V0.5ZM1354.2 0.5H1353.58V3.5H1354.2V0.5ZM1353.58 0.5H1352.95V3.5H1353.58V0.5ZM1352.95 0.5H1352.32V3.5H1352.95V0.5ZM1352.32 0.5H1351.69V3.5H1352.32V0.5ZM1351.69 0.5H1351.06V3.5H1351.69V0.5ZM1351.06 0.5H1350.43V3.5H1351.06V0.5ZM1350.43 0.5H1349.8V3.5H1350.43V0.5ZM1349.8 0.5H1349.17V3.5H1349.8V0.5ZM1349.17 0.5H1348.54V3.5H1349.17V0.5ZM1348.54 0.5H1347.91V3.5H1348.54V0.5ZM1347.91 0.5H1347.27V3.5H1347.91V0.5ZM1347.27 0.5H1346.64V3.5H1347.27V0.5ZM1346.64 0.5H1346.01V3.5H1346.64V0.5ZM1346.01 0.5H1345.38V3.5H1346.01V0.5ZM1345.38 0.5H1344.74V3.5H1345.38V0.5ZM1344.74 0.5H1344.11V3.5H1344.74V0.5ZM1344.11 0.5H1343.48V3.5H1344.11V0.5ZM1343.48 0.5H1342.84V3.5H1343.48V0.5ZM1342.84 0.5H1342.21V3.5H1342.84V0.5ZM1342.21 0.5H1341.58V3.5H1342.21V0.5ZM1341.58 0.5H1340.94V3.5H1341.58V0.5ZM1340.94 0.5H1340.31V3.5H1340.94V0.5ZM1340.31 0.5H1339.67V3.5H1340.31V0.5ZM1339.67 0.5H1339.04V3.5H1339.67V0.5ZM1339.04 0.5H1338.4V3.5H1339.04V0.5ZM1338.4 0.5H1337.77V3.5H1338.4V0.5ZM1337.77 0.5H1337.13V3.5H1337.77V0.5ZM1337.13 0.5H1336.49V3.5H1337.13V0.5ZM1336.49 0.5H1335.86V3.5H1336.49V0.5ZM1335.86 0.5H1335.22V3.5H1335.86V0.5ZM1335.22 0.5H1334.59V3.5H1335.22V0.5ZM1334.59 0.5H1333.95V3.5H1334.59V0.5ZM1333.95 0.5H1333.31V3.5H1333.95V0.5ZM1333.31 0.5H1332.68V3.5H1333.31V0.5ZM1332.68 0.5H1332.04V3.5H1332.68V0.5ZM1332.04 0.5H1331.4V3.5H1332.04V0.5ZM1331.4 0.5H1330.76V3.5H1331.4V0.5ZM1330.76 0.5H1330.13V3.5H1330.76V0.5ZM1330.13 0.5H1329.49V3.5H1330.13V0.5ZM1329.49 0.5H1328.85V3.5H1329.49V0.5ZM1328.85 0.5H1328.22V3.5H1328.85V0.5ZM1328.22 0.5H1327.58V3.5H1328.22V0.5ZM1327.58 0.5H1326.94V3.5H1327.58V0.5ZM1326.94 0.5H1326.31V3.5H1326.94V0.5ZM1326.31 0.5H1325.67V3.5H1326.31V0.5ZM1325.67 0.5H1325.03V3.5H1325.67V0.5ZM1325.03 0.5H1324.39V3.5H1325.03V0.5ZM1324.39 0.5H1323.76V3.5H1324.39V0.5ZM1323.76 0.5H1323.12V3.5H1323.76V0.5ZM1323.12 0.5H1322.48V3.5H1323.12V0.5ZM1322.48 0.5H1321.85V3.5H1322.48V0.5ZM1321.85 0.5H1321.21V3.5H1321.85V0.5ZM1321.21 0.5H1320.57V3.5H1321.21V0.5ZM1320.57 0.5H1319.93V3.5H1320.57V0.5ZM1319.93 0.5H1319.3V3.5H1319.93V0.5ZM1319.3 0.5H1318.66V3.5H1319.3V0.5ZM1318.66 0.5H1318.03V3.5H1318.66V0.5ZM1318.03 0.5H1317.39V3.5H1318.03V0.5ZM1317.39 0.5H1316.75V3.5H1317.39V0.5ZM1316.75 0.5H1316.12V3.5H1316.75V0.5ZM1316.12 0.5H1315.48V3.5H1316.12V0.5ZM1315.48 0.5H1314.85V3.5H1315.48V0.5ZM1314.85 0.5H1314.21V3.5H1314.85V0.5ZM1314.21 0.5H1313.57V3.5H1314.21V0.5ZM1313.57 0.5H1312.94V3.5H1313.57V0.5ZM1312.94 0.5H1312.3V3.5H1312.94V0.5ZM1312.3 0.5H1311.67V3.5H1312.3V0.5ZM1311.67 0.5H1311.04V3.5H1311.67V0.5ZM1311.04 0.5H1310.4V3.5H1311.04V0.5ZM1310.4 0.5H1309.77V3.5H1310.4V0.5ZM1309.77 0.5H1309.13V3.5H1309.77V0.5ZM1309.13 0.5H1308.5V3.5H1309.13V0.5ZM1308.5 0.5H1307.87V3.5H1308.5V0.5ZM1307.87 0.5H1307.23V3.5H1307.87V0.5ZM1307.23 0.5H1306.6V3.5H1307.23V0.5ZM1306.6 0.5H1305.97V3.5H1306.6V0.5ZM1305.97 0.5H1305.34V3.5H1305.97V0.5ZM1305.34 0.5H1304.7V3.5H1305.34V0.5ZM1304.7 0.5H1304.07V3.5H1304.7V0.5ZM1304.07 0.5H1303.44V3.5H1304.07V0.5ZM1303.44 0.5H1302.81V3.5H1303.44V0.5ZM1302.81 0.5H1302.18V3.5H1302.81V0.5ZM1302.18 0.5H1301.55V3.5H1302.18V0.5ZM1301.55 0.5H1300.92V3.5H1301.55V0.5ZM1300.92 0.5H1300.29V3.5H1300.92V0.5ZM1300.29 0.5H1299.66V3.5H1300.29V0.5ZM1299.66 0.5H1299.03V3.5H1299.66V0.5ZM1299.03 0.5H1298.41V3.5H1299.03V0.5ZM1298.41 0.5H1297.78V3.5H1298.41V0.5ZM1297.78 0.5H1297.15V3.5H1297.78V0.5ZM1297.15 0.5H1296.52V3.5H1297.15V0.5ZM1296.52 0.5H1295.9V3.5H1296.52V0.5ZM1295.9 0.5H1295.27V3.5H1295.9V0.5ZM1295.27 0.5H1294.65V3.5H1295.27V0.5ZM1294.65 0.5H1294.02V3.5H1294.65V0.5ZM1294.02 0.5H1293.4V3.5H1294.02V0.5ZM1293.4 0.5H1292.77V3.5H1293.4V0.5ZM1292.77 0.5H1292.15V3.5H1292.77V0.5ZM1292.15 0.5H1291.53V3.5H1292.15V0.5ZM1291.53 0.5H1290.91V3.5H1291.53V0.5ZM1290.91 0.5H1290.28V3.5H1290.91V0.5ZM1290.28 0.5H1289.66V3.5H1290.28V0.5ZM1289.66 0.5H1289.04V3.5H1289.66V0.5ZM1289.04 0.5H1288.42V3.5H1289.04V0.5ZM1288.42 0.5H1287.8V3.5H1288.42V0.5ZM1287.8 0.5H1287.18V3.5H1287.8V0.5ZM1287.18 0.5H1286.56V3.5H1287.18V0.5ZM1286.56 0.5H1285.95V3.5H1286.56V0.5ZM1285.95 0.5H1285.33V3.5H1285.95V0.5ZM1285.33 0.5H1284.71V3.5H1285.33V0.5ZM1284.71 0.5H1284.1V3.5H1284.71V0.5ZM1284.1 0.5H1283.48V3.5H1284.1V0.5ZM1283.48 0.5H1282.87V3.5H1283.48V0.5ZM1282.87 0.5H1282.25V3.5H1282.87V0.5ZM1282.25 0.5H1281.64V3.5H1282.25V0.5ZM1281.64 0.5H1281.03V3.5H1281.64V0.5ZM1281.03 0.5H1280.42V3.5H1281.03V0.5ZM1280.42 0.5H1279.81V3.5H1280.42V0.5ZM1279.81 0.5H1279.2V3.5H1279.81V0.5ZM1279.2 0.5H1278.59V3.5H1279.2V0.5ZM1278.59 0.5H1277.98V3.5H1278.59V0.5ZM1277.98 0.5H1277.37V3.5H1277.98V0.5ZM1277.37 0.5H1276.76V3.5H1277.37V0.5ZM1276.76 0.5H1276.15V3.5H1276.76V0.5ZM1276.15 0.5H1275.55V3.5H1276.15V0.5ZM1275.55 0.5H1274.94V3.5H1275.55V0.5ZM1274.94 0.5H1274.34V3.5H1274.94V0.5ZM1274.34 0.5H1273.74V3.5H1274.34V0.5ZM1273.74 0.5H1273.13V3.5H1273.74V0.5ZM1273.13 0.5H1272.53V3.5H1273.13V0.5ZM1272.53 0.5H1271.93V3.5H1272.53V0.5ZM1271.93 0.5H1271.33V3.5H1271.93V0.5ZM1271.33 0.5H1270.73V3.5H1271.33V0.5ZM1270.73 0.5H1270.13V3.5H1270.73V0.5ZM1270.13 0.5H1269.53V3.5H1270.13V0.5ZM1269.53 0.5H1268.94V3.5H1269.53V0.5ZM1268.94 0.5H1268.34V3.5H1268.94V0.5ZM1268.34 0.5H1267.75V3.5H1268.34V0.5ZM1267.75 0.5H1267.15V3.5H1267.75V0.5ZM1267.15 0.5H1266.56V3.5H1267.15V0.5ZM1266.56 0.5H1265.97V3.5H1266.56V0.5ZM1265.97 0.5H1265.38V3.5H1265.97V0.5ZM1265.38 0.5H1264.78V3.5H1265.38V0.5ZM1264.78 0.5H1264.2V3.5H1264.78V0.5ZM1264.2 0.5H1263.61V3.5H1264.2V0.5ZM1263.61 0.5H1263.02V3.5H1263.61V0.5ZM1263.02 0.5H1262.43V3.5H1263.02V0.5ZM1262.43 0.5H1261.85V3.5H1262.43V0.5ZM1261.85 0.5H1261.26V3.5H1261.85V0.5ZM1261.26 0.5H1260.68V3.5H1261.26V0.5ZM1260.68 0.5H1260.1V3.5H1260.68V0.5ZM1260.1 0.5H1259.52V3.5H1260.1V0.5ZM1259.52 0.5H1258.94V3.5H1259.52V0.5ZM1258.94 0.5H1258.36V3.5H1258.94V0.5ZM1258.36 0.5H1257.78V3.5H1258.36V0.5ZM1257.78 0.5H1257.2V3.5H1257.78V0.5ZM1257.2 0.5H1256.62V3.5H1257.2V0.5ZM1256.62 0.5H1256.05V3.5H1256.62V0.5ZM1256.05 0.5H1255.48V3.5H1256.05V0.5ZM1255.48 0.5H1254.9V3.5H1255.48V0.5ZM1254.9 0.5H1254.33V3.5H1254.9V0.5ZM1254.33 0.5H1253.76V3.5H1254.33V0.5ZM1253.76 0.5H1253.19V3.5H1253.76V0.5ZM1253.19 0.5H1252.62V3.5H1253.19V0.5ZM1252.62 0.5H1252.06V3.5H1252.62V0.5ZM1252.06 0.5H1251.49V3.5H1252.06V0.5ZM1251.49 0.5H1250.92V3.5H1251.49V0.5ZM1250.92 0.5H1250.36V3.5H1250.92V0.5ZM1250.36 0.5H1249.8V3.5H1250.36V0.5ZM1249.8 0.5H1249.24V3.5H1249.8V0.5ZM1249.24 0.5H1248.68V3.5H1249.24V0.5ZM1248.68 0.5H1248.12V3.5H1248.68V0.5ZM1248.12 0.5H1247.56V3.5H1248.12V0.5ZM1247.56 0.5H1247V3.5H1247.56V0.5ZM1247 0.5H1246.45V3.5H1247V0.5ZM1246.45 0.5H1245.9V3.5H1246.45V0.5ZM1245.9 0.5H1245.34V3.5H1245.9V0.5ZM1245.34 0.5H1244.79V3.5H1245.34V0.5ZM1244.79 0.5H1244.24V3.5H1244.79V0.5ZM1244.24 0.5H1243.69V3.5H1244.24V0.5ZM1243.69 0.5H1243.15V3.5H1243.69V0.5ZM1243.15 0.5H1242.6V3.5H1243.15V0.5ZM1242.6 0.5H1242.06V3.5H1242.6V0.5ZM1242.06 0.5H1241.51V3.5H1242.06V0.5ZM1241.51 0.5H1240.97V3.5H1241.51V0.5ZM1240.97 0.5H1240.43V3.5H1240.97V0.5ZM1240.43 0.5H1239.89V3.5H1240.43V0.5ZM1239.89 0.5H1239.35V3.5H1239.89V0.5ZM1239.35 0.5H1238.82V3.5H1239.35V0.5ZM1238.82 0.5H1238.28V3.5H1238.82V0.5ZM1238.28 0.5H1237.75V3.5H1238.28V0.5ZM1237.75 0.5H1237.22V3.5H1237.75V0.5ZM1237.22 0.5H1236.68V3.5H1237.22V0.5ZM1236.68 0.5H1236.16V3.5H1236.68V0.5ZM1236.16 0.5H1235.63V3.5H1236.16V0.5ZM1235.63 0.5H1235.1V3.5H1235.63V0.5ZM1235.1 0.5H1234.58V3.5H1235.1V0.5ZM1234.58 0.5H1234.05V3.5H1234.58V0.5ZM1234.05 0.5H1233.53V3.5H1234.05V0.5ZM1233.53 0.5H1233.01V3.5H1233.53V0.5ZM1233.01 0.5H1232.49V3.5H1233.01V0.5ZM1232.49 0.5H1231.97V3.5H1232.49V0.5ZM1231.97 0.5H1231.46V3.5H1231.97V0.5ZM1231.46 0.5H1230.94V3.5H1231.46V0.5ZM1230.94 0.5H1230.43V3.5H1230.94V0.5ZM1230.43 0.5H1229.92V3.5H1230.43V0.5ZM1229.92 0.5H1229.41V3.5H1229.92V0.5ZM1229.41 0.5H1228.9V3.5H1229.41V0.5ZM1228.9 0.5H1228.39V3.5H1228.9V0.5ZM1228.39 0.5H1227.89V3.5H1228.39V0.5ZM1227.89 0.5H1227.38V3.5H1227.89V0.5ZM1227.38 0.5H1226.88V3.5H1227.38V0.5ZM1226.88 0.5H1226.38V3.5H1226.88V0.5ZM1226.38 0.5H1225.88V3.5H1226.38V0.5ZM1225.88 0.5H1225.39V3.5H1225.88V0.5ZM1225.39 0.5H1224.89V3.5H1225.39V0.5ZM1224.89 0.5H1224.4V3.5H1224.89V0.5ZM1224.4 0.5H1223.91V3.5H1224.4V0.5ZM1223.91 0.5H1223.42V3.5H1223.91V0.5ZM1223.42 0.5H1222.93V3.5H1223.42V0.5ZM1222.93 0.5H1222.44V3.5H1222.93V0.5ZM1222.44 0.5H1221.96V3.5H1222.44V0.5ZM1221.96 0.5H1221.47V3.5H1221.96V0.5ZM1221.47 0.5H1220.99V3.5H1221.47V0.5ZM1220.99 0.5H1220.51V3.5H1220.99V0.5ZM1220.51 0.5H1220.03V3.5H1220.51V0.5ZM1220.03 0.5H1219.55V3.5H1220.03V0.5ZM1219.55 0.5H1219.08V3.5H1219.55V0.5ZM1219.08 0.5H1218.61V3.5H1219.08V0.5ZM1218.61 0.5H1218.14V3.5H1218.61V0.5ZM1218.14 0.5H1217.67V3.5H1218.14V0.5ZM1217.67 0.5H1217.2V3.5H1217.67V0.5ZM1217.2 0.5H1216.73V3.5H1217.2V0.5ZM1216.73 0.5H1216.27V3.5H1216.73V0.5ZM1216.27 0.5H1215.81V3.5H1216.27V0.5ZM1215.81 0.5H1215.35V3.5H1215.81V0.5ZM1215.35 0.5H1214.89V3.5H1215.35V0.5ZM1214.89 0.5H1214.43V3.5H1214.89V0.5ZM1214.43 0.5H1213.98V3.5H1214.43V0.5ZM1213.98 0.5H1213.52V3.5H1213.98V0.5ZM1213.52 0.5H1213.07V3.5H1213.52V0.5ZM1213.07 0.5H1212.62V3.5H1213.07V0.5ZM1212.62 0.5H1212.18V3.5H1212.62V0.5ZM1212.18 0.5H1211.73V3.5H1212.18V0.5ZM1211.73 0.5H1211.29V3.5H1211.73V0.5ZM1211.29 0.5H1210.85V3.5H1211.29V0.5ZM1210.85 0.5H1210.41V3.5H1210.85V0.5ZM1210.41 0.5H1209.97V3.5H1210.41V0.5ZM1209.97 0.5H1209.53V3.5H1209.97V0.5ZM1209.53 0.5H1209.1V3.5H1209.53V0.5ZM1209.1 0.5H1208.67V3.5H1209.1V0.5ZM1208.67 0.5H1208.24V3.5H1208.67V0.5ZM1208.24 0.5H1207.81V3.5H1208.24V0.5ZM1207.81 0.5H1207.39V3.5H1207.81V0.5ZM1207.39 0.5H1206.96V3.5H1207.39V0.5ZM1206.96 0.5H1206.54V3.5H1206.96V0.5ZM1206.54 0.5H1206.12V3.5H1206.54V0.5ZM1206.12 0.5H1205.71V3.5H1206.12V0.5ZM1205.71 0.5H1205.29V3.5H1205.71V0.5ZM1205.29 0.5H1204.88V3.5H1205.29V0.5ZM1204.88 0.5H1204.47V3.5H1204.88V0.5ZM1204.47 0.5H1204.06V3.5H1204.47V0.5ZM1204.06 0.5H1203.65V3.5H1204.06V0.5ZM1203.65 0.5H1203.24V3.5H1203.65V0.5ZM1203.24 0.5H1202.84V3.5H1203.24V0.5ZM1202.84 0.5H1202.44V3.5H1202.84V0.5ZM1202.44 0.5H1202.04V3.5H1202.44V0.5ZM1202.04 0.5H1201.65V3.5H1202.04V0.5ZM1201.65 0.5H1201.25V3.5H1201.65V0.5ZM1201.25 0.5H1200.86V3.5H1201.25V0.5ZM1200.86 0.5H1200.47V3.5H1200.86V0.5ZM1200.47 0.5H1200.08V3.5H1200.47V0.5ZM1200.08 0.5H1199.7V3.5H1200.08V0.5ZM1199.7 0.5H1199.31V3.5H1199.7V0.5ZM1199.31 0.5H1198.93V3.5H1199.31V0.5ZM1198.93 0.5H1198.56V3.5H1198.93V0.5ZM1198.56 0.5H1198.18V3.5H1198.56V0.5ZM1198.18 0.5H1197.8V3.5H1198.18V0.5ZM1197.8 0.5H1197.43V3.5H1197.8V0.5ZM1197.43 0.5H1197.06V3.5H1197.43V0.5ZM1197.06 0.5H1196.7V3.5H1197.06V0.5ZM1196.7 0.5H1196.33V3.5H1196.7V0.5ZM1196.33 0.5H1195.97V3.5H1196.33V0.5ZM1195.97 0.5H1195.61V3.5H1195.97V0.5ZM1195.61 0.5H1195.25V3.5H1195.61V0.5ZM1195.25 0.5H1194.89V3.5H1195.25V0.5ZM1194.89 0.5H1194.54V3.5H1194.89V0.5ZM1194.54 0.5H1194.19V3.5H1194.54V0.5ZM1194.19 0.5H1193.84V3.5H1194.19V0.5ZM1193.84 0.5H1193.49V3.5H1193.84V0.5ZM1193.49 0.5H1193.15V3.5H1193.49V0.5ZM1193.15 0.5H1192.81V3.5H1193.15V0.5ZM1192.81 0.5H1192.47V3.5H1192.81V0.5ZM1192.47 0.5H1192.13V3.5H1192.47V0.5ZM1192.13 0.5H1191.8V3.5H1192.13V0.5ZM1191.8 0.5H1191.46V3.5H1191.8V0.5ZM1191.46 0.5H1191.13V3.5H1191.46V0.5ZM1191.13 0.5H1190.81V3.5H1191.13V0.5ZM1190.81 0.5H1190.48V3.5H1190.81V0.5ZM1190.48 0.5H1190.16V3.5H1190.48V0.5ZM1190.16 0.5H1189.84V3.5H1190.16V0.5ZM1189.84 0.5H1189.52V3.5H1189.84V0.5ZM1189.52 0.5H1189.21V3.5H1189.52V0.5ZM1189.21 0.5H1188.89V3.5H1189.21V0.5ZM1188.89 0.5H1188.58V3.5H1188.89V0.5ZM1188.58 0.5H1188.28V3.5H1188.58V0.5ZM1188.28 0.5H1187.97V3.5H1188.28V0.5ZM1187.97 0.5H1187.67V3.5H1187.97V0.5ZM1187.67 0.5H1187.37V3.5H1187.67V0.5ZM1187.37 0.5H1187.07V3.5H1187.37V0.5ZM1187.07 0.5H1186.78V3.5H1187.07V0.5ZM1186.78 0.5H1186.49V3.5H1186.78V0.5ZM1186.49 0.5H1186.2V3.5H1186.49V0.5ZM1186.2 0.5H1185.91V3.5H1186.2V0.5ZM1185.91 0.5H1185.63V3.5H1185.91V0.5ZM1185.63 0.5H1185.34V3.5H1185.63V0.5ZM1185.34 0.5H1185.06V3.5H1185.34V0.5ZM1185.06 0.5H1184.79V3.5H1185.06V0.5ZM1184.79 0.5H1184.51V3.5H1184.79V0.5ZM1184.51 0.5H1184.24V3.5H1184.51V0.5ZM1184.24 0.5H1183.97V3.5H1184.24V0.5ZM1183.97 0.5H1183.71V3.5H1183.97V0.5ZM1183.71 0.5H1183.45V3.5H1183.71V0.5ZM1183.45 0.5H1183.19V3.5H1183.45V0.5ZM1183.19 0.5H1182.93V3.5H1183.19V0.5ZM1182.93 0.5H1182.67V3.5H1182.93V0.5ZM1182.67 0.5H1182.42V3.5H1182.67V0.5ZM1182.42 0.5H1182.17V3.5H1182.42V0.5ZM1182.17 0.5H1181.92V3.5H1182.17V0.5ZM1181.92 0.5H1181.68V3.5H1181.92V0.5ZM1181.68 0.5H1181.44V3.5H1181.68V0.5ZM1181.44 0.5H1181.2V3.5H1181.44V0.5ZM1181.2 0.5H1180.96V3.5H1181.2V0.5ZM1180.96 0.5H1180.73V3.5H1180.96V0.5ZM1180.73 0.5H1180.5V3.5H1180.73V0.5ZM1180.5 0.5H1180.27V3.5H1180.5V0.5ZM1180.27 0.5H1180.05V3.5H1180.27V0.5ZM1180.05 0.5H1179.83V3.5H1180.05V0.5ZM1179.83 0.5H1179.61V3.5H1179.83V0.5ZM1179.61 0.5H1179.39V3.5H1179.61V0.5ZM1179.39 0.5H1179.18V3.5H1179.39V0.5ZM1179.18 0.5H1178.97V3.5H1179.18V0.5ZM1178.97 0.5H1178.76V3.5H1178.97V0.5ZM1178.76 0.5H1178.56V3.5H1178.76V0.5ZM1178.56 0.5H1178.35V3.5H1178.56V0.5ZM1178.35 0.5H1178.16V3.5H1178.35V0.5ZM1178.16 0.5H1177.96V3.5H1178.16V0.5ZM1177.96 0.5H1177.77V3.5H1177.96V0.5ZM1177.77 0.5H1177.58V3.5H1177.77V0.5ZM1177.58 0.5H1177.39V3.5H1177.58V0.5ZM1177.39 0.5H1177.21V3.5H1177.39V0.5ZM1177.21 0.5H1177.02V3.5H1177.21V0.5ZM1177.02 0.5H1176.85V3.5H1177.02V0.5ZM1176.85 0.5H1176.67V3.5H1176.85V0.5ZM1176.67 0.5H1176.5V3.5H1176.67V0.5ZM1176.5 0.5H1176.33V3.5H1176.5V0.5ZM1176.33 0.5H1176.16V3.5H1176.33V0.5ZM1176.16 0.5H1176V3.5H1176.16V0.5ZM1176 0.5C1171.36 0.5 1165.95 1.7618 1160 3.85794L1161 6.68724C1166.81 4.63864 1171.85 3.5 1176 3.5V0.5ZM1160 3.85794C1154.04 5.96164 1147.41 8.95156 1140.29 12.508L1141.63 15.1913C1148.7 11.6609 1155.2 8.73207 1161 6.68724L1160 3.85794ZM1140.29 12.508C1130.15 17.5785 1118.93 23.8515 1107.15 30.4394L1108.61 33.058C1120.41 26.4609 1131.57 20.2247 1141.63 15.1913L1140.29 12.508ZM1107.15 30.4394C1102.4 33.0916 1097.56 35.796 1092.66 38.4984L1094.11 41.1258C1099.02 38.4183 1103.87 35.7096 1108.61 33.058L1107.15 30.4394ZM1092.66 38.4984C1075.55 47.9291 1057.67 57.3177 1040.25 64.3486L1041.37 67.1304C1058.96 60.0286 1076.98 50.5667 1094.11 41.1258L1092.66 38.4984ZM1040.25 64.3486C1022.82 71.3874 1006 76 991 76V79C1006.56 79 1023.79 74.2282 1041.37 67.1304L1040.25 64.3486ZM991 76H449V79H991V76ZM398.626 67.1304C416.206 74.2282 433.438 79 449 79V76C433.999 76 417.183 71.3874 399.749 64.3486L398.626 67.1304ZM345.892 41.1258C363.024 50.5667 381.036 60.0286 398.626 67.1304L399.749 64.3486C382.335 57.3177 364.453 47.9291 347.34 38.4984L345.892 41.1258ZM331.393 33.0594C336.135 35.7105 340.98 38.4188 345.892 41.1258L347.34 38.4984C342.437 35.7964 337.6 33.0925 332.857 30.4408L331.393 33.0594ZM331.399 33.0625L331.401 33.0639L332.849 30.4363L332.846 30.4349L331.399 33.0625ZM331.39 33.0576L331.391 33.0584L332.854 30.439L332.852 30.4383L331.39 33.0576ZM298.365 15.1913C308.432 20.2245 319.588 26.4604 331.389 33.0573L332.853 30.4386C321.068 23.851 309.847 17.5783 299.707 12.508L298.365 15.1913ZM279 6.68724C284.799 8.73207 291.305 11.6609 298.365 15.1913L299.707 12.508C292.594 8.95156 285.964 5.96164 279.997 3.85794L279 6.68724ZM264 3.5C268.148 3.5 273.189 4.63864 279 6.68724L279.997 3.85794C274.052 1.7618 268.641 0.5 264 0.5V3.5ZM263.837 3.5H264V0.5H263.837V3.5ZM263.671 3.5H263.837V0.5H263.671V3.5ZM263.501 3.5H263.671V0.5H263.501V3.5ZM263.329 3.5H263.501V0.5H263.329V3.5ZM263.154 3.5H263.329V0.5H263.154V3.5ZM262.976 3.5H263.154V0.5H262.976V3.5ZM262.794 3.5H262.976V0.5H262.794V3.5ZM262.61 3.5H262.794V0.5H262.61V3.5ZM262.423 3.5H262.61V0.5H262.423V3.5ZM262.233 3.5H262.423V0.5H262.233V3.5ZM262.04 3.5H262.233V0.5H262.04V3.5ZM261.844 3.5H262.04V0.5H261.844V3.5ZM261.645 3.5H261.844V0.5H261.645V3.5ZM261.444 3.5H261.645V0.5H261.444V3.5ZM261.239 3.5H261.444V0.5H261.239V3.5ZM261.031 3.5H261.239V0.5H261.031V3.5ZM260.821 3.5H261.031V0.5H260.821V3.5ZM260.608 3.5H260.821V0.5H260.608V3.5ZM260.392 3.5H260.608V0.5H260.392V3.5ZM260.173 3.5H260.392V0.5H260.173V3.5ZM259.951 3.5H260.173V0.5H259.951V3.5ZM259.727 3.5H259.951V0.5H259.727V3.5ZM259.499 3.5H259.727V0.5H259.499V3.5ZM259.269 3.5H259.499V0.5H259.269V3.5ZM259.036 3.5H259.269V0.5H259.036V3.5ZM258.8 3.5H259.036V0.5H258.8V3.5ZM258.561 3.5H258.8V0.5H258.561V3.5ZM258.32 3.5H258.561V0.5H258.32V3.5ZM258.076 3.5H258.32V0.5H258.076V3.5ZM257.829 3.5H258.076V0.5H257.829V3.5ZM257.58 3.5H257.829V0.5H257.58V3.5ZM257.327 3.5H257.58V0.5H257.327V3.5ZM257.072 3.5H257.327V0.5H257.072V3.5ZM256.814 3.5H257.072V0.5H256.814V3.5ZM256.554 3.5H256.814V0.5H256.554V3.5ZM256.291 3.5H256.554V0.5H256.291V3.5ZM256.025 3.5H256.291V0.5H256.025V3.5ZM255.757 3.5H256.025V0.5H255.757V3.5ZM255.485 3.5H255.757V0.5H255.485V3.5ZM255.212 3.5H255.485V0.5H255.212V3.5ZM254.935 3.5H255.212V0.5H254.935V3.5ZM254.656 3.5H254.935V0.5H254.656V3.5ZM254.374 3.5H254.656V0.5H254.374V3.5ZM254.09 3.5H254.374V0.5H254.09V3.5ZM253.803 3.5H254.09V0.5H253.803V3.5ZM253.514 3.5H253.803V0.5H253.514V3.5ZM253.222 3.5H253.514V0.5H253.222V3.5ZM252.927 3.5H253.222V0.5H252.927V3.5ZM252.63 3.5H252.927V0.5H252.63V3.5ZM252.33 3.5H252.63V0.5H252.33V3.5ZM252.027 3.5H252.33V0.5H252.027V3.5ZM251.723 3.5H252.027V0.5H251.723V3.5ZM251.415 3.5H251.723V0.5H251.415V3.5ZM251.105 3.5H251.415V0.5H251.105V3.5ZM250.793 3.5H251.105V0.5H250.793V3.5ZM250.478 3.5H250.793V0.5H250.478V3.5ZM250.16 3.5H250.478V0.5H250.16V3.5ZM249.841 3.5H250.16V0.5H249.841V3.5ZM249.518 3.5H249.841V0.5H249.518V3.5ZM249.193 3.5H249.518V0.5H249.193V3.5ZM248.866 3.5H249.193V0.5H248.866V3.5ZM248.536 3.5H248.866V0.5H248.536V3.5ZM248.204 3.5H248.536V0.5H248.204V3.5ZM247.87 3.5H248.204V0.5H247.87V3.5ZM247.533 3.5H247.87V0.5H247.533V3.5ZM247.193 3.5H247.533V0.5H247.193V3.5ZM246.852 3.5H247.193V0.5H246.852V3.5ZM246.507 3.5H246.852V0.5H246.507V3.5ZM246.161 3.5H246.507V0.5H246.161V3.5ZM245.812 3.5H246.161V0.5H245.812V3.5ZM245.461 3.5H245.812V0.5H245.461V3.5ZM245.107 3.5H245.461V0.5H245.107V3.5ZM244.751 3.5H245.107V0.5H244.751V3.5ZM244.393 3.5H244.751V0.5H244.393V3.5ZM244.033 3.5H244.393V0.5H244.033V3.5ZM243.67 3.5H244.033V0.5H243.67V3.5ZM243.305 3.5H243.67V0.5H243.305V3.5ZM242.937 3.5H243.305V0.5H242.937V3.5ZM242.567 3.5H242.937V0.5H242.567V3.5ZM242.195 3.5H242.567V0.5H242.195V3.5ZM241.821 3.5H242.195V0.5H241.821V3.5ZM241.445 3.5H241.821V0.5H241.445V3.5ZM241.066 3.5H241.445V0.5H241.066V3.5ZM240.685 3.5H241.066V0.5H240.685V3.5ZM240.302 3.5H240.685V0.5H240.302V3.5ZM239.916 3.5H240.302V0.5H239.916V3.5ZM239.529 3.5H239.916V0.5H239.529V3.5ZM239.139 3.5H239.529V0.5H239.139V3.5ZM238.747 3.5H239.139V0.5H238.747V3.5ZM238.353 3.5H238.747V0.5H238.353V3.5ZM237.957 3.5H238.353V0.5H237.957V3.5ZM237.558 3.5H237.957V0.5H237.558V3.5ZM237.158 3.5H237.558V0.5H237.158V3.5ZM236.755 3.5H237.158V0.5H236.755V3.5ZM236.35 3.5H236.755V0.5H236.35V3.5ZM235.943 3.5H236.35V0.5H235.943V3.5ZM235.534 3.5H235.943V0.5H235.534V3.5ZM235.123 3.5H235.534V0.5H235.123V3.5ZM234.71 3.5H235.123V0.5H234.71V3.5ZM234.295 3.5H234.71V0.5H234.295V3.5ZM233.877 3.5H234.295V0.5H233.877V3.5ZM233.458 3.5H233.877V0.5H233.458V3.5ZM233.036 3.5H233.458V0.5H233.036V3.5ZM232.613 3.5H233.036V0.5H232.613V3.5ZM232.188 3.5H232.613V0.5H232.188V3.5ZM231.76 3.5H232.188V0.5H231.76V3.5ZM231.33 3.5H231.76V0.5H231.33V3.5ZM230.899 3.5H231.33V0.5H230.899V3.5ZM230.465 3.5H230.899V0.5H230.465V3.5ZM230.03 3.5H230.465V0.5H230.03V3.5ZM229.592 3.5H230.03V0.5H229.592V3.5ZM229.153 3.5H229.592V0.5H229.153V3.5ZM228.712 3.5H229.153V0.5H228.712V3.5ZM228.268 3.5H228.712V0.5H228.268V3.5ZM227.823 3.5H228.268V0.5H227.823V3.5ZM227.376 3.5H227.823V0.5H227.376V3.5ZM226.927 3.5H227.376V0.5H226.927V3.5ZM226.476 3.5H226.927V0.5H226.476V3.5ZM226.023 3.5H226.476V0.5H226.023V3.5ZM225.568 3.5H226.023V0.5H225.568V3.5ZM225.112 3.5H225.568V0.5H225.112V3.5ZM224.653 3.5H225.112V0.5H224.653V3.5ZM224.193 3.5H224.653V0.5H224.193V3.5ZM223.731 3.5H224.193V0.5H223.731V3.5ZM223.267 3.5H223.731V0.5H223.267V3.5ZM222.801 3.5H223.267V0.5H222.801V3.5ZM222.333 3.5H222.801V0.5H222.333V3.5ZM221.864 3.5H222.333V0.5H221.864V3.5ZM221.393 3.5H221.864V0.5H221.393V3.5ZM220.92 3.5H221.393V0.5H220.92V3.5ZM220.445 3.5H220.92V0.5H220.445V3.5ZM219.969 3.5H220.445V0.5H219.969V3.5ZM219.49 3.5H219.969V0.5H219.49V3.5ZM219.01 3.5H219.49V0.5H219.01V3.5ZM218.528 3.5H219.01V0.5H218.528V3.5ZM218.045 3.5H218.528V0.5H218.045V3.5ZM217.56 3.5H218.045V0.5H217.56V3.5ZM217.073 3.5H217.56V0.5H217.073V3.5ZM216.584 3.5H217.073V0.5H216.584V3.5ZM216.094 3.5H216.584V0.5H216.094V3.5ZM215.602 3.5H216.094V0.5H215.602V3.5ZM215.108 3.5H215.602V0.5H215.108V3.5ZM214.613 3.5H215.108V0.5H214.613V3.5ZM214.116 3.5H214.613V0.5H214.116V3.5ZM213.617 3.5H214.116V0.5H213.617V3.5ZM213.117 3.5H213.617V0.5H213.117V3.5ZM212.615 3.5H213.117V0.5H212.615V3.5ZM212.112 3.5H212.615V0.5H212.112V3.5ZM211.607 3.5H212.112V0.5H211.607V3.5ZM211.1 3.5H211.607V0.5H211.1V3.5ZM210.592 3.5H211.1V0.5H210.592V3.5ZM210.082 3.5H210.592V0.5H210.082V3.5ZM209.57 3.5H210.082V0.5H209.57V3.5ZM209.058 3.5H209.57V0.5H209.058V3.5ZM208.543 3.5H209.058V0.5H208.543V3.5ZM208.027 3.5H208.543V0.5H208.027V3.5ZM207.51 3.5H208.027V0.5H207.51V3.5ZM206.99 3.5H207.51V0.5H206.99V3.5ZM206.47 3.5H206.99V0.5H206.47V3.5ZM205.948 3.5H206.47V0.5H205.948V3.5ZM205.424 3.5H205.948V0.5H205.424V3.5ZM204.899 3.5H205.424V0.5H204.899V3.5ZM204.373 3.5H204.899V0.5H204.373V3.5ZM203.845 3.5H204.373V0.5H203.845V3.5ZM203.316 3.5H203.845V0.5H203.316V3.5ZM202.785 3.5H203.316V0.5H202.785V3.5ZM202.253 3.5H202.785V0.5H202.253V3.5ZM201.719 3.5H202.253V0.5H201.719V3.5ZM201.184 3.5H201.719V0.5H201.184V3.5ZM200.647 3.5H201.184V0.5H200.647V3.5ZM200.109 3.5H200.647V0.5H200.109V3.5ZM199.57 3.5H200.109V0.5H199.57V3.5ZM199.03 3.5H199.57V0.5H199.03V3.5ZM198.488 3.5H199.03V0.5H198.488V3.5ZM197.944 3.5H198.488V0.5H197.944V3.5ZM197.4 3.5H197.944V0.5H197.4V3.5ZM196.854 3.5H197.4V0.5H196.854V3.5ZM196.306 3.5H196.854V0.5H196.306V3.5ZM195.758 3.5H196.306V0.5H195.758V3.5ZM195.208 3.5H195.758V0.5H195.208V3.5ZM194.657 3.5H195.208V0.5H194.657V3.5ZM194.104 3.5H194.657V0.5H194.104V3.5ZM193.55 3.5H194.104V0.5H193.55V3.5ZM192.995 3.5H193.55V0.5H192.995V3.5ZM192.439 3.5H192.995V0.5H192.439V3.5ZM191.882 3.5H192.439V0.5H191.882V3.5ZM191.323 3.5H191.882V0.5H191.323V3.5ZM190.763 3.5H191.323V0.5H190.763V3.5ZM190.202 3.5H190.763V0.5H190.202V3.5ZM189.639 3.5H190.202V0.5H189.639V3.5ZM189.076 3.5H189.639V0.5H189.076V3.5ZM188.511 3.5H189.076V0.5H188.511V3.5ZM187.945 3.5H188.511V0.5H187.945V3.5ZM187.378 3.5H187.945V0.5H187.378V3.5ZM186.809 3.5H187.378V0.5H186.809V3.5ZM186.24 3.5H186.809V0.5H186.24V3.5ZM185.669 3.5H186.24V0.5H185.669V3.5ZM185.098 3.5H185.669V0.5H185.098V3.5ZM184.525 3.5H185.098V0.5H184.525V3.5ZM183.951 3.5H184.525V0.5H183.951V3.5ZM183.376 3.5H183.951V0.5H183.376V3.5ZM182.8 3.5H183.376V0.5H182.8V3.5ZM182.222 3.5H182.8V0.5H182.222V3.5ZM181.644 3.5H182.222V0.5H181.644V3.5ZM181.065 3.5H181.644V0.5H181.065V3.5ZM180.484 3.5H181.065V0.5H180.484V3.5ZM179.903 3.5H180.484V0.5H179.903V3.5ZM179.321 3.5H179.903V0.5H179.321V3.5ZM178.737 3.5H179.321V0.5H178.737V3.5ZM178.153 3.5H178.737V0.5H178.153V3.5ZM177.567 3.5H178.153V0.5H177.567V3.5ZM176.981 3.5H177.567V0.5H176.981V3.5ZM176.393 3.5H176.981V0.5H176.393V3.5ZM175.805 3.5H176.393V0.5H175.805V3.5ZM175.215 3.5H175.805V0.5H175.215V3.5ZM174.625 3.5H175.215V0.5H174.625V3.5ZM174.034 3.5H174.625V0.5H174.034V3.5ZM173.441 3.5H174.034V0.5H173.441V3.5ZM172.848 3.5H173.441V0.5H172.848V3.5ZM172.254 3.5H172.848V0.5H172.254V3.5ZM171.659 3.5H172.254V0.5H171.659V3.5ZM171.063 3.5H171.659V0.5H171.063V3.5ZM170.466 3.5H171.063V0.5H170.466V3.5ZM169.869 3.5H170.466V0.5H169.869V3.5ZM169.27 3.5H169.869V0.5H169.27V3.5ZM168.671 3.5H169.27V0.5H168.671V3.5ZM168.07 3.5H168.671V0.5H168.07V3.5ZM167.469 3.5H168.07V0.5H167.469V3.5ZM166.867 3.5H167.469V0.5H166.867V3.5ZM166.265 3.5H166.867V0.5H166.265V3.5ZM165.661 3.5H166.265V0.5H165.661V3.5ZM165.057 3.5H165.661V0.5H165.057V3.5ZM164.452 3.5H165.057V0.5H164.452V3.5ZM163.846 3.5H164.452V0.5H163.846V3.5ZM163.239 3.5H163.846V0.5H163.239V3.5ZM162.632 3.5H163.239V0.5H162.632V3.5ZM162.023 3.5H162.632V0.5H162.023V3.5ZM161.415 3.5H162.023V0.5H161.415V3.5ZM160.805 3.5H161.415V0.5H160.805V3.5ZM160.194 3.5H160.805V0.5H160.194V3.5ZM159.583 3.5H160.194V0.5H159.583V3.5ZM158.972 3.5H159.583V0.5H158.972V3.5ZM158.359 3.5H158.972V0.5H158.359V3.5ZM157.746 3.5H158.359V0.5H157.746V3.5ZM157.132 3.5H157.746V0.5H157.132V3.5ZM156.517 3.5H157.132V0.5H156.517V3.5ZM155.902 3.5H156.517V0.5H155.902V3.5ZM155.286 3.5H155.902V0.5H155.286V3.5ZM154.67 3.5H155.286V0.5H154.67V3.5ZM154.053 3.5H154.67V0.5H154.053V3.5ZM153.435 3.5H154.053V0.5H153.435V3.5ZM152.817 3.5H153.435V0.5H152.817V3.5ZM152.198 3.5H152.817V0.5H152.198V3.5ZM151.578 3.5H152.198V0.5H151.578V3.5ZM150.958 3.5H151.578V0.5H150.958V3.5ZM150.337 3.5H150.958V0.5H150.337V3.5ZM149.716 3.5H150.337V0.5H149.716V3.5ZM149.094 3.5H149.716V0.5H149.094V3.5ZM148.472 3.5H149.094V0.5H148.472V3.5ZM147.849 3.5H148.472V0.5H147.849V3.5ZM147.226 3.5H147.849V0.5H147.226V3.5ZM146.602 3.5H147.226V0.5H146.602V3.5ZM145.978 3.5H146.602V0.5H145.978V3.5ZM145.353 3.5H145.978V0.5H145.353V3.5ZM144.727 3.5H145.353V0.5H144.727V3.5ZM144.102 3.5H144.727V0.5H144.102V3.5ZM143.475 3.5H144.102V0.5H143.475V3.5ZM142.849 3.5H143.475V0.5H142.849V3.5ZM142.221 3.5H142.849V0.5H142.221V3.5ZM141.594 3.5H142.221V0.5H141.594V3.5ZM140.966 3.5H141.594V0.5H140.966V3.5ZM140.337 3.5H140.966V0.5H140.337V3.5ZM139.708 3.5H140.337V0.5H139.708V3.5ZM139.079 3.5H139.708V0.5H139.079V3.5ZM138.45 3.5H139.079V0.5H138.45V3.5ZM137.819 3.5H138.45V0.5H137.819V3.5ZM137.189 3.5H137.819V0.5H137.189V3.5ZM136.558 3.5H137.189V0.5H136.558V3.5ZM135.927 3.5H136.558V0.5H135.927V3.5ZM135.296 3.5H135.927V0.5H135.296V3.5ZM134.664 3.5H135.296V0.5H134.664V3.5ZM134.032 3.5H134.664V0.5H134.032V3.5ZM133.4 3.5H134.032V0.5H133.4V3.5ZM132.767 3.5H133.4V0.5H132.767V3.5ZM132.134 3.5H132.767V0.5H132.134V3.5ZM131.501 3.5H132.134V0.5H131.501V3.5ZM130.867 3.5H131.501V0.5H130.867V3.5ZM130.233 3.5H130.867V0.5H130.233V3.5ZM129.599 3.5H130.233V0.5H129.599V3.5ZM128.965 3.5H129.599V0.5H128.965V3.5ZM128.33 3.5H128.965V0.5H128.33V3.5ZM127.696 3.5H128.33V0.5H127.696V3.5ZM127.061 3.5H127.696V0.5H127.061V3.5ZM126.426 3.5H127.061V0.5H126.426V3.5ZM125.79 3.5H126.426V0.5H125.79V3.5ZM125.155 3.5H125.79V0.5H125.155V3.5ZM124.519 3.5H125.155V0.5H124.519V3.5ZM123.883 3.5H124.519V0.5H123.883V3.5ZM123.247 3.5H123.883V0.5H123.247V3.5ZM122.611 3.5H123.247V0.5H122.611V3.5ZM121.975 3.5H122.611V0.5H121.975V3.5ZM121.338 3.5H121.975V0.5H121.338V3.5ZM120.702 3.5H121.338V0.5H120.702V3.5ZM120.065 3.5H120.702V0.5H120.065V3.5ZM119.428 3.5H120.065V0.5H119.428V3.5ZM118.792 3.5H119.428V0.5H118.792V3.5ZM118.155 3.5H118.792V0.5H118.155V3.5ZM117.518 3.5H118.155V0.5H117.518V3.5ZM116.881 3.5H117.518V0.5H116.881V3.5ZM116.243 3.5H116.881V0.5H116.243V3.5ZM115.606 3.5H116.243V0.5H115.606V3.5ZM114.969 3.5H115.606V0.5H114.969V3.5ZM114.332 3.5H114.969V0.5H114.332V3.5ZM113.695 3.5H114.332V0.5H113.695V3.5ZM113.058 3.5H113.695V0.5H113.058V3.5ZM112.42 3.5H113.058V0.5H112.42V3.5ZM111.783 3.5H112.42V0.5H111.783V3.5ZM111.146 3.5H111.783V0.5H111.146V3.5ZM110.509 3.5H111.146V0.5H110.509V3.5ZM109.872 3.5H110.509V0.5H109.872V3.5ZM109.235 3.5H109.872V0.5H109.235V3.5ZM108.598 3.5H109.235V0.5H108.598V3.5ZM107.961 3.5H108.598V0.5H107.961V3.5ZM107.325 3.5H107.961V0.5H107.325V3.5ZM106.688 3.5H107.325V0.5H106.688V3.5ZM106.051 3.5H106.688V0.5H106.051V3.5ZM105.415 3.5H106.051V0.5H105.415V3.5ZM104.779 3.5H105.415V0.5H104.779V3.5ZM104.142 3.5H104.779V0.5H104.142V3.5ZM103.506 3.5H104.142V0.5H103.506V3.5ZM102.871 3.5H103.506V0.5H102.871V3.5ZM102.235 3.5H102.871V0.5H102.235V3.5ZM101.599 3.5H102.235V0.5H101.599V3.5ZM100.964 3.5H101.599V0.5H100.964V3.5ZM100.329 3.5H100.964V0.5H100.329V3.5ZM99.6938 3.5H100.329V0.5H99.6938V3.5ZM99.059 3.5H99.6938V0.5H99.059V3.5ZM98.4245 3.5H99.059V0.5H98.4245V3.5ZM97.7902 3.5H98.4245V0.5H97.7902V3.5ZM97.1561 3.5H97.7902V0.5H97.1561V3.5ZM96.5223 3.5H97.1561V0.5H96.5223V3.5ZM95.8888 3.5H96.5223V0.5H95.8888V3.5ZM95.2555 3.5H95.8888V0.5H95.2555V3.5ZM94.6225 3.5H95.2555V0.5H94.6225V3.5ZM93.9898 3.5H94.6225V0.5H93.9898V3.5ZM93.3574 3.5H93.9898V0.5H93.3574V3.5ZM92.7253 3.5H93.3574V0.5H92.7253V3.5ZM92.0935 3.5H92.7253V0.5H92.0935V3.5ZM91.462 3.5H92.0935V0.5H91.462V3.5ZM90.8309 3.5H91.462V0.5H90.8309V3.5ZM90.2001 3.5H90.8309V0.5H90.2001V3.5ZM89.5697 3.5H90.2001V0.5H89.5697V3.5ZM88.9397 3.5H89.5697V0.5H88.9397V3.5ZM88.31 3.5H88.9397V0.5H88.31V3.5ZM87.6807 3.5H88.31V0.5H87.6807V3.5ZM87.0518 3.5H87.6807V0.5H87.0518V3.5ZM86.4233 3.5H87.0518V0.5H86.4233V3.5ZM85.7952 3.5H86.4233V0.5H85.7952V3.5ZM85.1676 3.5H85.7952V0.5H85.1676V3.5ZM84.5403 3.5H85.1676V0.5H84.5403V3.5ZM83.9136 3.5H84.5403V0.5H83.9136V3.5ZM83.2872 3.5H83.9136V0.5H83.2872V3.5ZM82.6614 3.5H83.2872V0.5H82.6614V3.5ZM82.036 3.5H82.6614V0.5H82.036V3.5ZM81.4111 3.5H82.036V0.5H81.4111V3.5ZM80.7867 3.5H81.4111V0.5H80.7867V3.5ZM80.1627 3.5H80.7867V0.5H80.1627V3.5ZM79.5393 3.5H80.1627V0.5H79.5393V3.5ZM78.9165 3.5H79.5393V0.5H78.9165V3.5ZM78.2941 3.5H78.9165V0.5H78.2941V3.5ZM77.6723 3.5H78.2941V0.5H77.6723V3.5ZM77.051 3.5H77.6723V0.5H77.051V3.5ZM76.4303 3.5H77.051V0.5H76.4303V3.5ZM75.8102 3.5H76.4303V0.5H75.8102V3.5ZM75.1906 3.5H75.8102V0.5H75.1906V3.5ZM74.5716 3.5H75.1906V0.5H74.5716V3.5ZM73.9533 3.5H74.5716V0.5H73.9533V3.5ZM73.3355 3.5H73.9533V0.5H73.3355V3.5ZM72.7184 3.5H73.3355V0.5H72.7184V3.5ZM72.1018 3.5H72.7184V0.5H72.1018V3.5ZM71.4859 3.5H72.1018V0.5H71.4859V3.5ZM70.8707 3.5H71.4859V0.5H70.8707V3.5ZM70.2561 3.5H70.8707V0.5H70.2561V3.5ZM69.6422 3.5H70.2561V0.5H69.6422V3.5ZM69.0289 3.5H69.6422V0.5H69.0289V3.5ZM68.4164 3.5H69.0289V0.5H68.4164V3.5ZM67.8045 3.5H68.4164V0.5H67.8045V3.5ZM67.1933 3.5H67.8045V0.5H67.1933V3.5ZM66.5829 3.5H67.1933V0.5H66.5829V3.5ZM65.9732 3.5H66.5829V0.5H65.9732V3.5ZM65.3642 3.5H65.9732V0.5H65.3642V3.5ZM64.7559 3.5H65.3642V0.5H64.7559V3.5ZM64.1484 3.5H64.7559V0.5H64.1484V3.5ZM63.5417 3.5H64.1484V0.5H63.5417V3.5ZM62.9357 3.5H63.5417V0.5H62.9357V3.5ZM62.3305 3.5H62.9357V0.5H62.3305V3.5ZM61.7261 3.5H62.3305V0.5H61.7261V3.5ZM61.1225 3.5H61.7261V0.5H61.1225V3.5ZM60.5197 3.5H61.1225V0.5H60.5197V3.5ZM59.9177 3.5H60.5197V0.5H59.9177V3.5ZM59.3166 3.5H59.9177V0.5H59.3166V3.5ZM58.7163 3.5H59.3166V0.5H58.7163V3.5ZM58.1168 3.5H58.7163V0.5H58.1168V3.5ZM57.5182 3.5H58.1168V0.5H57.5182V3.5ZM56.9205 3.5H57.5182V0.5H56.9205V3.5ZM56.3237 3.5H56.9205V0.5H56.3237V3.5ZM55.7277 3.5H56.3237V0.5H55.7277V3.5ZM55.1326 3.5H55.7277V0.5H55.1326V3.5ZM54.5385 3.5H55.1326V0.5H54.5385V3.5ZM53.9452 3.5H54.5385V0.5H53.9452V3.5ZM53.3529 3.5H53.9452V0.5H53.3529V3.5ZM52.7615 3.5H53.3529V0.5H52.7615V3.5ZM52.1711 3.5H52.7615V0.5H52.1711V3.5ZM51.5816 3.5H52.1711V0.5H51.5816V3.5ZM50.993 3.5H51.5816V0.5H50.993V3.5ZM50.4055 3.5H50.993V0.5H50.4055V3.5ZM49.8189 3.5H50.4055V0.5H49.8189V3.5ZM49.2333 3.5H49.8189V0.5H49.2333V3.5ZM48.6488 3.5H49.2333V0.5H48.6488V3.5ZM48.0652 3.5H48.6488V0.5H48.0652V3.5ZM47.4827 3.5H48.0652V0.5H47.4827V3.5ZM46.9012 3.5H47.4827V0.5H46.9012V3.5ZM46.3207 3.5H46.9012V0.5H46.3207V3.5ZM45.7413 3.5H46.3207V0.5H45.7413V3.5ZM45.1629 3.5H45.7413V0.5H45.1629V3.5ZM44.5856 3.5H45.1629V0.5H44.5856V3.5ZM44.0094 3.5H44.5856V0.5H44.0094V3.5ZM43.4343 3.5H44.0094V0.5H43.4343V3.5ZM42.8603 3.5H43.4343V0.5H42.8603V3.5ZM42.2874 3.5H42.8603V0.5H42.2874V3.5ZM41.7156 3.5H42.2874V0.5H41.7156V3.5ZM41.1449 3.5H41.7156V0.5H41.1449V3.5ZM40.5754 3.5H41.1449V0.5H40.5754V3.5ZM40.007 3.5H40.5754V0.5H40.007V3.5ZM39.4398 3.5H40.007V0.5H39.4398V3.5ZM38.8738 3.5H39.4398V0.5H38.8738V3.5ZM38.3089 3.5H38.8738V0.5H38.3089V3.5ZM37.7452 3.5H38.3089V0.5H37.7452V3.5ZM37.1827 3.5H37.7452V0.5H37.1827V3.5ZM36.6214 3.5H37.1827V0.5H36.6214V3.5ZM36.0613 3.5H36.6214V0.5H36.0613V3.5ZM35.5025 3.5H36.0613V0.5H35.5025V3.5ZM34.9448 3.5H35.5025V0.5H34.9448V3.5ZM34.3885 3.5H34.9448V0.5H34.3885V3.5ZM33.8333 3.5H34.3885V0.5H33.8333V3.5ZM33.2795 3.5H33.8333V0.5H33.2795V3.5ZM32.7269 3.5H33.2795V0.5H32.7269V3.5ZM32.1756 3.5H32.7269V0.5H32.1756V3.5ZM31.6256 3.5H32.1756V0.5H31.6256V3.5ZM31.0769 3.5H31.6256V0.5H31.0769V3.5ZM30.5295 3.5H31.0769V0.5H30.5295V3.5ZM29.9834 3.5H30.5295V0.5H29.9834V3.5ZM29.4386 3.5H29.9834V0.5H29.4386V3.5ZM28.8952 3.5H29.4386V0.5H28.8952V3.5ZM28.3531 3.5H28.8952V0.5H28.3531V3.5ZM27.8124 3.5H28.3531V0.5H27.8124V3.5ZM27.2731 3.5H27.8124V0.5H27.2731V3.5ZM26.7352 3.5H27.2731V0.5H26.7352V3.5ZM26.1986 3.5H26.7352V0.5H26.1986V3.5ZM25.6634 3.5H26.1986V0.5H25.6634V3.5ZM25.1297 3.5H25.6634V0.5H25.1297V3.5ZM24.5973 3.5H25.1297V0.5H24.5973V3.5ZM24.0664 3.5H24.5973V0.5H24.0664V3.5ZM23.5369 3.5H24.0664V0.5H23.5369V3.5ZM23.0089 3.5H23.5369V0.5H23.0089V3.5ZM22.4823 3.5H23.0089V0.5H22.4823V3.5ZM21.9572 3.5H22.4823V0.5H21.9572V3.5ZM21.4335 3.5H21.9572V0.5H21.4335V3.5ZM20.9114 3.5H21.4335V0.5H20.9114V3.5ZM20.3907 3.5H20.9114V0.5H20.3907V3.5ZM19.8716 3.5H20.3907V0.5H19.8716V3.5ZM19.3539 3.5H19.8716V0.5H19.3539V3.5ZM18.8378 3.5H19.3539V0.5H18.8378V3.5ZM18.3232 3.5H18.8378V0.5H18.3232V3.5ZM17.8102 3.5H18.3232V0.5H17.8102V3.5ZM17.2987 3.5H17.8102V0.5H17.2987V3.5ZM16.7888 3.5H17.2987V0.5H16.7888V3.5ZM16.2804 3.5H16.7888V0.5H16.2804V3.5ZM15.7736 3.5H16.2804V0.5H15.7736V3.5ZM15.2684 3.5H15.7736V0.5H15.2684V3.5ZM14.7648 3.5H15.2684V0.5H14.7648V3.5ZM14.2629 3.5H14.7648V0.5H14.2629V3.5ZM13.7625 3.5H14.2629V0.5H13.7625V3.5ZM13.2638 3.5H13.7625V0.5H13.2638V3.5ZM12.7667 3.5H13.2638V0.5H12.7667V3.5ZM12.2712 3.5H12.7667V0.5H12.2712V3.5ZM11.7775 3.5H12.2712V0.5H11.7775V3.5ZM11.2854 3.5H11.7775V0.5H11.2854V3.5ZM10.7949 3.5H11.2854V0.5H10.7949V3.5ZM10.3062 3.5H10.7949V0.5H10.3062V3.5ZM9.81911 3.5H10.3062V0.5H9.81911V3.5ZM9.33376 3.5H9.81911V0.5H9.33376V3.5ZM8.85013 3.5H9.33376V0.5H8.85013V3.5ZM8.36822 3.5H8.85013V0.5H8.36822V3.5ZM7.88805 3.5H8.36822V0.5H7.88805V3.5ZM7.40963 3.5H7.88805V0.5H7.40963V3.5ZM6.93296 3.5H7.40963V0.5H6.93296V3.5ZM6.45805 3.5H6.93296V0.5H6.45805V3.5ZM5.98492 3.5H6.45805V0.5H5.98492V3.5ZM5.51357 3.5H5.98492V0.5H5.51357V3.5ZM5.04401 3.5H5.51357V0.5H5.04401V3.5ZM4.57626 3.5H5.04401V0.5H4.57626V3.5ZM4.11032 3.5H4.57626V0.5H4.11032V3.5ZM3.6462 3.5H4.11032V0.5H3.6462V3.5ZM3.18391 3.5H3.6462V0.5H3.18391V3.5ZM2.72347 3.5H3.18391V0.5H2.72347V3.5ZM2.26487 3.5H2.72347V0.5H2.26487V3.5ZM1.80814 3.5H2.26487V0.5H1.80814V3.5ZM1.35327 3.5H1.80814V0.5H1.35327V3.5ZM0.900289 3.5H1.35327V0.5H0.900289V3.5ZM0.449195 3.5H0.900289V0.5H0.449195V3.5ZM0 3.5H0.449195V0.5H0V3.5ZM1.5 3V2H-1.5V3H1.5Z" fill="#00C4FF"/>
</svg>
