<?xml version="1.0" encoding="utf-8"?>

<!-- Uploaded to: SVG Repo, www.svgrepo.com, Generator: SVG Repo Mixer Tools -->
<svg version="1.1" id="Icons" xmlns="http://www.w3.org/2000/svg" xmlns:xlink="http://www.w3.org/1999/xlink" 
	 viewBox="0 0 32 32" xml:space="preserve">
<style type="text/css">
	.st0{fill:none;stroke:#000000;stroke-width:2;stroke-linecap:round;stroke-linejoin:round;stroke-miterlimit:10;}
</style>
<path class="st0" d="M26,26h-8c-1.1,0-2-0.9-2-2V5c0-1.1,0.9-2,2-2h8c1.1,0,2,0.9,2,2v19C28,25.1,27.1,26,26,26z"/>
<line class="st0" x1="22" y1="7" x2="22" y2="11"/>
<line class="st0" x1="20" y1="9" x2="24" y2="9"/>
<line class="st0" x1="22" y1="21" x2="22" y2="21"/>
<circle class="st0" cx="22" cy="15" r="1"/>
<path class="st0" d="M22,26L22,26c0,1.7-1.3,3-3,3h-3.5C9.2,29,4,23.8,4,17.5v-2C4,14.1,5.1,13,6.5,13h0C7.9,13,9,14.1,9,15.5v2.9
	c0,4.6,2.8,8.8,7,10.6l0,0"/>
</svg>